<?xml version="1.0" encoding="UTF-8" standalone="no"?>
<svg width="35px" height="27px" viewBox="0 0 35 27" version="1.1" xmlns="http://www.w3.org/2000/svg" xmlns:xlink="http://www.w3.org/1999/xlink">
    <!-- Generator: Sketch 39.1 (31720) - http://www.bohemiancoding.com/sketch -->
    <title>noun_685134_cc</title>
    <desc>Created with Sketch.</desc>
    <defs></defs>
    <g id="Page-1" stroke="none" stroke-width="1" fill="none" fill-rule="evenodd">
        <g id="Desktop-Copy-9" transform="translate(-101.000000, -3176.000000)" fill="#5D5D5D">
            <g id="noun_685134_cc" transform="translate(118.500000, 3189.500000) scale(-1, 1) translate(-118.500000, -3189.500000) translate(101.000000, 3176.000000)">
                <g id="Group">
                    <g transform="translate(0.000000, 0.453188)" id="Shape">
                        <path d="M34.8255012,12.5567053 L23.6253612,0.477793421 C23.3542512,0.190598684 22.8909212,0.188538158 22.6298912,0.444398684 C22.3645912,0.704380263 22.3451312,1.18164079 22.5969912,1.45483816 L32.6814712,12.3347368 L0.7001092,12.3347368 C0.3134992,12.3347368 0.0001092,12.6528395 0.0001092,13.0452632 C0.0001092,13.4376868 0.3134992,13.7557895 0.7001092,13.7557895 L32.6814712,13.7557895 L22.5969912,24.6357237 C22.3449212,24.9089211 22.3604612,25.3903737 22.6298912,25.6461632 C22.8991112,25.9019526 23.3323412,25.9082763 23.6253612,25.6127684 L34.8255012,13.5338211 C35.0917112,13.2012947 35.0217112,12.7937368 34.8255012,12.5567053 L34.8255012,12.5567053 Z"></path>
                    </g>
                </g>
            </g>
        </g>
    </g>
</svg>