<?xml version="1.0" encoding="UTF-8" standalone="no"?>
<svg width="427px" height="81px" viewBox="0 0 427 81" version="1.1" xmlns="http://www.w3.org/2000/svg" xmlns:xlink="http://www.w3.org/1999/xlink">
    <!-- Generator: Sketch 39.1 (31720) - http://www.bohemiancoding.com/sketch -->
    <title>Group</title>
    <desc>Created with Sketch.</desc>
    <defs>
        <circle id="path-1" cx="288.5" cy="36.5" r="4.5"></circle>
        <mask id="mask-2" maskContentUnits="userSpaceOnUse" maskUnits="objectBoundingBox" x="-1" y="-1" width="11" height="11">
            <rect x="283" y="31" width="11" height="11" fill="white"></rect>
            <use xlink:href="#path-1" fill="black"></use>
        </mask>
        <circle id="path-3" cx="312.5" cy="36.5" r="4.5"></circle>
        <mask id="mask-4" maskContentUnits="userSpaceOnUse" maskUnits="objectBoundingBox" x="-1" y="-1" width="11" height="11">
            <rect x="307" y="31" width="11" height="11" fill="white"></rect>
            <use xlink:href="#path-3" fill="black"></use>
        </mask>
    </defs>
    <g id="Page-1" stroke="none" stroke-width="1" fill="none" fill-rule="evenodd">
        <g id="Group">
            <path d="M0,68.9906292 C0,71.9504685 2.43241556,74.3721553 5.40536792,74.3721553 C8.46840974,74.3721553 10.9008253,71.9504685 10.9008253,68.9906292 L10.9008253,66.5689424 C14.2341355,70.9638554 19.1890561,74.9103079 27.1169291,74.9103079 C38.3781122,74.9103079 49.188848,66.0307898 49.188848,50.334672 L49.188848,50.1552878 C49.188848,34.3694779 38.2880227,25.5796519 27.1169291,25.5796519 C19.369235,25.5796519 14.4143144,29.5261044 10.9008253,34.45917 L10.9008253,13.3815261 C10.9008253,10.3319946 8.46840974,8 5.40536792,8 C2.3423261,8 0,10.3319946 0,13.3815261 L0,68.9906292 L0,68.9906292 Z M24.5043346,65.4926372 C17.1169984,65.4926372 10.6305569,59.3935743 10.6305569,50.334672 L10.6305569,50.1552878 C10.6305569,41.0963855 17.1169984,34.9973226 24.5043346,34.9973226 C31.8916707,34.9973226 38.1078438,41.0066934 38.1078438,50.1552878 L38.1078438,50.334672 C38.1078438,59.6626506 31.9817602,65.4926372 24.5043346,65.4926372 L24.5043346,65.4926372 L24.5043346,65.4926372 Z M71.6511547,46.9263722 C72.6421388,39.5716198 77.326791,34.45917 83.9934115,34.45917 C91.2005687,34.45917 95.3446841,39.9303882 96.0653998,46.9263722 L71.6511547,46.9263722 L71.6511547,46.9263722 Z M102.371662,68.7215529 C103.182468,67.914324 103.813094,66.7483266 103.813094,65.4029451 C103.813094,62.8915663 101.921215,61.0080321 99.4887995,61.0080321 C98.227547,61.0080321 97.5068313,61.3668005 96.6960261,61.9946452 C93.6329843,64.5060241 90.0294056,66.1204819 85.4348429,66.1204819 C78.4078646,66.1204819 72.9124072,61.815261 71.7412442,54.1017403 L101.560857,54.1017403 C104.353631,54.1017403 106.695957,51.9491299 106.695957,48.8995984 C106.695957,37.957162 99.2185311,25.5796519 84.0835009,25.5796519 C70.4799917,25.5796519 60.8404189,36.7014726 60.8404189,50.2449799 L60.8404189,50.4243641 C60.8404189,65.0441767 71.4709758,75 85.254664,75 C92.6420001,75 98.0473681,72.5783133 102.371662,68.7215529 L102.371662,68.7215529 L102.371662,68.7215529 Z M136.365421,75 C145.104099,75 150.779735,70.6947791 153.932866,66.2998661 L153.932866,72.0401606 C153.932866,73.3855422 154.833761,74.2824632 156.095014,74.2824632 C157.356266,74.2824632 158.257161,73.3855422 158.257161,72.0401606 L158.257161,45.4016064 C158.257161,39.751004 156.63555,35.5354752 153.572508,32.4859438 C150.239198,29.167336 145.284278,27.4631861 139.068105,27.4631861 C133.212289,27.4631861 128.617727,28.8085676 123.933074,30.8714859 C123.482627,31.0508701 122.671822,31.768407 122.671822,32.8447122 C122.671822,33.9210174 123.662806,34.9076305 124.74388,34.9076305 C125.014148,34.9076305 125.374506,34.8179384 125.734864,34.6385542 C129.518621,32.8447122 133.752826,31.5890228 138.797836,31.5890228 C148.25723,31.5890228 153.932866,36.3427041 153.932866,45.5809906 L153.932866,47.5542169 C149.518483,46.3882195 145.104099,45.5809906 138.707747,45.5809906 C126.815937,45.5809906 118.617796,50.9625167 118.617796,60.4698795 L118.617796,60.6492637 C118.617796,70.1566265 127.806921,75 136.365421,75 L136.365421,75 L136.365421,75 Z M136.635689,70.8741633 C129.608711,70.8741633 123.302448,67.0174029 123.302448,60.3801874 L123.302448,60.2008032 C123.302448,53.832664 128.707816,49.5274431 138.437478,49.5274431 C145.014009,49.5274431 150.149109,50.6037483 154.022956,51.5903614 L154.022956,56.7925033 C154.022956,65.1338688 146.004993,70.8741633 136.635689,70.8741633 L136.635689,70.8741633 L136.635689,70.8741633 Z M175.584368,68.9906292 C175.584368,72.0401606 178.016783,74.3721553 180.989736,74.3721553 C184.052778,74.3721553 186.485193,72.0401606 186.485193,68.9906292 L186.485193,47.1954485 C186.485193,39.9303882 190.629309,35.4457831 196.665303,35.4457831 C202.701297,35.4457831 206.304876,39.5716198 206.304876,46.9263722 L206.304876,68.9906292 C206.304876,72.0401606 208.737291,74.3721553 211.800333,74.3721553 C214.773285,74.3721553 217.205701,72.0401606 217.205701,68.9906292 L217.205701,47.1954485 C217.205701,39.5716198 221.439906,35.4457831 227.38581,35.4457831 C233.511894,35.4457831 237.025383,39.4819277 237.025383,47.0160643 L237.025383,68.9906292 C237.025383,72.0401606 239.457799,74.3721553 242.520841,74.3721553 C245.583882,74.3721553 247.926208,72.0401606 247.926208,68.9906292 L247.926208,43.6974565 C247.926208,32.1271754 241.619946,25.5796519 231.259657,25.5796519 C224.0525,25.5796519 219.00749,28.8982597 215.223733,33.9210174 C212.701228,28.8982597 207.836396,25.5796519 200.989597,25.5796519 C193.69235,25.5796519 189.548235,29.5261044 186.485193,33.7416332 L186.485193,31.4993307 C186.485193,28.4497992 184.052778,26.0281124 180.989736,26.0281124 C177.926694,26.0281124 175.584368,28.4497992 175.584368,31.4993307 L175.584368,68.9906292 L175.584368,68.9906292 Z M354.261807,68.9906292 C354.261807,72.0401606 356.694223,74.3721553 359.667175,74.3721553 C362.730217,74.3721553 365.162633,72.0401606 365.162633,68.9906292 L365.162633,47.1954485 C365.162633,39.9303882 369.306748,35.4457831 375.342742,35.4457831 C381.378736,35.4457831 384.982315,39.5716198 384.982315,46.9263722 L384.982315,68.9906292 C384.982315,72.0401606 387.414731,74.3721553 390.477772,74.3721553 C393.450725,74.3721553 395.88314,72.0401606 395.88314,68.9906292 L395.88314,47.1954485 C395.88314,39.5716198 400.117345,35.4457831 406.06325,35.4457831 C412.189334,35.4457831 415.702823,39.4819277 415.702823,47.0160643 L415.702823,68.9906292 C415.702823,72.0401606 418.135238,74.3721553 421.19828,74.3721553 C424.261322,74.3721553 426.603648,72.0401606 426.603648,68.9906292 L426.603648,43.6974565 C426.603648,32.1271754 420.297385,25.5796519 409.937097,25.5796519 C402.72994,25.5796519 397.68493,28.8982597 393.901172,33.9210174 C391.378667,28.8982597 386.513836,25.5796519 379.667037,25.5796519 C372.36979,25.5796519 368.225674,29.5261044 365.162633,33.7416332 L365.162633,31.4993307 C365.162633,28.4497992 362.730217,26.0281124 359.667175,26.0281124 C356.604133,26.0281124 354.261807,28.4497992 354.261807,31.4993307 L354.261807,68.9906292 L354.261807,68.9906292 Z" id="beam---m" fill="#FFFFFF"></path>
            <path d="M320.729691,54.1159684 C319.708719,53.7728275 318.556575,54.2165442 318.160356,55.1122602 C315.413873,61.3384924 308.437452,65.5236279 300.803822,65.5236279 C293.460933,65.5236279 286.787424,61.728963 283.802938,55.856521 C283.356685,54.9809201 282.182905,54.5845332 281.179512,54.9750039 C280.177471,55.3654745 279.727161,56.3925307 280.17071,57.270498 C283.796177,64.395996 291.893639,69 300.803822,69 C310.066951,69 318.532234,63.9215149 321.865608,56.3629496 C322.261827,55.4684168 321.752016,54.462659 320.729691,54.1159684 L320.729691,54.1159684 L320.729691,54.1159684 Z" id="Shape" fill="#FFFFFF"></path>
            <g id="Oval">
                <use fill="#FFFFFF" fill-rule="evenodd" xlink:href="#path-1"></use>
                <use stroke="#FFFFFF" mask="url(#mask-2)" stroke-width="2" xlink:href="#path-1"></use>
            </g>
            <g id="Oval">
                <use fill="#FFFFFF" fill-rule="evenodd" xlink:href="#path-3"></use>
                <use stroke="#FFFFFF" mask="url(#mask-4)" stroke-width="2" xlink:href="#path-3"></use>
            </g>
            <path d="M336.525444,36.3061856 C335.780251,36.3061856 335.049695,36.4308319 334.351076,36.6679307 C330.546598,21.149471 316.74322,9.61698195 300.33832,9.61698195 C299.510623,9.61698195 298.692241,9.65627262 297.877851,9.7145312 C296.306291,7.72696525 296.943698,5.7475284 297.629009,4.83842359 C297.72482,4.71377733 298.57647,3.63260648 299.360253,4.09596541 C300.293076,4.64603479 301.489377,4.31951578 302.032304,3.36705574 C302.572569,2.41595056 302.25187,1.1979398 301.316386,0.64787042 C299.090121,-0.664979894 296.296976,0.0639297744 294.528472,2.41324086 C293.044739,4.38048406 292.384711,7.38689773 293.65287,10.2740845 C280.312577,12.9079143 269.648327,23.2616832 266.348185,36.5730912 C265.741385,36.3983154 265.114624,36.3034759 264.474556,36.3034759 C260.141789,36.3034759 257,39.8287974 257,44.6845822 C257,49.5390122 260.143119,53.0643337 264.474556,53.0643337 C265.020144,53.0643337 265.557748,52.9952363 266.080714,52.8678804 C269.496627,68.9282804 283.555499,81 300.336989,81 C317.149085,81 331.229248,68.88628 334.614555,52.7838796 C335.232001,52.9654296 335.872069,53.0643337 336.524113,53.0643337 C340.856881,53.0643337 344,49.5390122 344,44.6859371 C344,39.8315071 340.856881,36.3061856 336.525444,36.3061856 L336.525444,36.3061856 L336.525444,36.3061856 L336.525444,36.3061856 Z M264.474556,49.0837824 C262.308172,49.0837824 260.909604,47.3563478 260.909604,44.6859371 C260.909604,42.0141715 262.309503,40.2867369 264.474556,40.2867369 C264.863121,40.2867369 265.243702,40.3748022 265.606984,40.5265455 C265.399394,42.0927529 265.283623,43.6874121 265.283623,45.3105233 C265.283623,46.5258243 265.344835,47.7275769 265.461937,48.9117164 C265.142569,49.024169 264.809893,49.0837824 264.474556,49.0837824 L264.474556,49.0837824 L264.474556,49.0837824 L264.474556,49.0837824 Z M300.33832,77.0194487 C283.165604,77.0194487 269.193227,62.7935165 269.193227,45.3078136 C269.193227,29.189155 281.071078,15.8492951 296.38081,13.8617292 C296.637636,14.1177959 296.889139,14.3657336 297.129996,14.6041873 C298.758776,16.2096854 300.295737,17.728473 300.30106,18.5440931 C300.302391,18.8055793 300.13073,19.4220364 298.954389,20.6210792 C298.190566,21.3987635 298.190566,22.6574198 298.954389,23.4351041 C299.336301,23.8239462 299.836645,24.0190447 300.336989,24.0190447 C300.837333,24.0190447 301.337677,23.8253011 301.719589,23.4351041 C302.797458,22.337675 304.226632,20.6346277 304.210664,18.5129316 C304.197357,16.7001413 303.219291,15.251806 301.712935,13.6327594 C318.250906,14.3684433 331.483412,28.2922438 331.483412,45.3078136 C331.484743,62.7935165 317.512366,77.0194487 300.33832,77.0194487 L300.33832,77.0194487 L300.33832,77.0194487 L300.33832,77.0194487 Z M335.226678,48.7694571 C335.334465,47.6300276 335.394347,46.4770497 335.394347,45.3091684 C335.394347,43.7348319 335.282568,42.1875924 335.088285,40.6660951 C335.539393,40.4181574 336.027761,40.2880918 336.525444,40.2880918 C338.691828,40.2880918 340.090396,42.0155264 340.090396,44.6872919 C340.090396,47.3590575 338.690497,49.0851373 336.525444,49.0851373 C336.076997,49.0851373 335.639196,48.9713298 335.226678,48.7694571 L335.226678,48.7694571 Z" id="Shape" fill="#FFFFFF"></path>
        </g>
    </g>
</svg>