<?xml version="1.0" encoding="UTF-8" standalone="no"?>
<svg width="70px" height="53px" viewBox="0 0 70 53" version="1.1" xmlns="http://www.w3.org/2000/svg" xmlns:xlink="http://www.w3.org/1999/xlink">
    <!-- Generator: Sketch 39.1 (31720) - http://www.bohemiancoding.com/sketch -->
    <title>noun_15467_cc</title>
    <desc>Created with Sketch.</desc>
    <defs></defs>
    <g id="Page-1" stroke="none" stroke-width="1" fill="none" fill-rule="evenodd">
        <g id="Desktop-Copy-13" transform="translate(-465.000000, -733.000000)" fill="#FFFFFF">
            <g id="noun_15467_cc" transform="translate(465.000000, 733.000000)">
                <g id="Group">
                    <path d="M68.3661364,1.64942424 C67.3678409,0.637606061 65.9646591,-0.000803030303 64.4318182,3.31247572e-13 L5.56818182,3.31247572e-13 C4.03534091,-0.000803030303 2.63215909,0.637606061 1.63386364,1.64942424 C0.631590909,2.65722727 -0.000795454545,4.07377273 3.71021958e-13,5.62121212 L3.71021958e-13,47.3787879 C-0.000795454545,48.9262273 0.631590909,50.3427727 1.63386364,51.3505758 C2.63215909,52.3623939 4.03534091,53.000803 5.56818182,53 L64.4318182,53 C65.9646591,53.000803 67.3678409,52.3623939 68.3661364,51.3505758 C69.3684091,50.3427727 70.0007955,48.9254242 70,47.3787879 L70,5.62121212 C70.0007955,4.07377273 69.3684091,2.65722727 68.3661364,1.64942424 L68.3661364,1.64942424 Z M65.2272727,44.5135758 L46.3272727,26.9015152 L65.2272727,9.28945455 L65.2272727,44.5135758 L65.2272727,44.5135758 Z M5.56818182,4.81818182 L64.4318182,4.81818182 C64.6489773,4.81898485 64.8367045,4.9025 64.9918182,5.05587879 C65.0069318,5.07113636 65.0117045,5.08960606 65.0252273,5.10566667 L38.8078409,29.5370606 C37.9909091,30.3023485 36.8486364,30.7159091 35.6856818,30.7151061 C34.5648864,30.7159091 33.4671591,30.3320606 32.6605682,29.6149545 L4.98829545,5.08559091 C4.99625,5.07595455 4.99943182,5.06551515 5.00738636,5.05587879 C5.16329545,4.9025 5.35102273,4.81898485 5.56818182,4.81818182 L5.56818182,4.81818182 Z M4.77272727,44.6340303 L4.77272727,9.16819697 L24.7776136,26.9015152 L4.77272727,44.6340303 L4.77272727,44.6340303 Z M5.59284091,48.1818182 L27.1886364,29.0391818 L30.5613636,32.0288636 C32.0138636,33.3145152 33.8609091,33.9264242 35.6848864,33.9272273 C37.5764773,33.9264242 39.4903409,33.2679394 40.9651136,31.8979697 L43.9814773,29.0873636 L64.4644318,48.1753939 C64.4532955,48.1753939 64.4445455,48.1818182 64.4318182,48.1818182 L5.59284091,48.1818182 L5.59284091,48.1818182 Z" id="Shape"></path>
                </g>
            </g>
        </g>
    </g>
</svg>