<?xml version="1.0" encoding="UTF-8" standalone="no"?>
<svg width="77px" height="86px" viewBox="0 0 77 86" version="1.1" xmlns="http://www.w3.org/2000/svg" xmlns:xlink="http://www.w3.org/1999/xlink">
    <!-- Generator: Sketch 39.1 (31720) - http://www.bohemiancoding.com/sketch -->
    <title>logo-wip-1</title>
    <desc>Created with Sketch.</desc>
    <defs></defs>
    <g id="Page-1" stroke="none" stroke-width="1" fill="none" fill-rule="evenodd">
        <g id="Desktop-Copy-11" transform="translate(-201.000000, -2337.000000)" fill="#FFFFFF">
            <g id="logo-wip-1" transform="translate(201.000000, 2337.000000)">
                <g id="Layer_1">
                    <g id="Group">
                        <path d="M31.0097276,83.8197183 C31.6688716,83.8197183 32.807393,83.6077465 33.7062257,82.1542254 C33.1968872,81.0035211 32.8373541,78.7021127 32.7774319,77.8542254 C32.5077821,73.5239437 34.155642,69.4661972 35.9533074,69.3753521 C37.2715953,69.284507 38.3202335,70.556338 38.4400778,72.615493 C38.7696498,78.0056338 37.0019455,80.2464789 36.1031128,82.184507 C36.2529183,82.9415493 37.511284,84.2133803 38.7097276,84.2133803 C39.159144,84.2133803 39.6684825,84.0014085 39.8182879,83.8197183 C39.7284047,83.5169014 39.6385214,83.1232394 39.6385214,82.5176056 C39.6385214,79.3985915 41.6159533,76.7640845 43.3536965,76.7640845 C44.7319066,76.7640845 45.5108949,78.5809859 45.5108949,79.7922535 C45.5108949,81.215493 44.3124514,82.3661972 42.5747082,83.4866197 C42.8743191,83.7894366 43.4435798,84.0316901 43.9529183,84.0316901 C46.4696498,84.0316901 47.7879377,80.9732394 48.7466926,78.1570423 C48.9264591,77.6119718 49.22607,76.8549296 49.8552529,76.8549296 C50.9038911,76.8549296 51.3533074,83.8802817 53.1210117,83.8802817 C53.8700389,83.8802817 54.4992218,82.3359155 54.4992218,81.1246479 C54.4992218,80.2464789 54.1996109,80.1556338 54.1996109,78.8535211 C54.1996109,77.4302817 54.9486381,76.2190141 55.9673152,76.2190141 C56.5964981,76.2190141 56.8062257,76.8246479 56.8062257,77.5816901 C56.8062257,80.428169 54.7688716,85.7274648 51.7727626,85.7274648 C49.5256809,85.7274648 49.7054475,81.8211268 48.8964981,81.8211268 C47.9976654,81.8211268 46.7692607,85.7880282 42.4249027,85.7880282 C41.7058366,85.7880282 40.9568093,85.4246479 40.3575875,84.728169 C39.3089494,85.4549296 38.4101167,85.7577465 37.3914397,85.7577465 C35.7735409,85.7577465 35.0544747,84.0619718 34.3953307,84.0619718 C33.6163424,84.0619718 32.7175097,85.7880282 30.0809339,85.7880282 C27.9536965,85.7880282 27.6241245,82.9415493 26.8750973,82.9415493 C26.2159533,82.9415493 25.1972763,85.7880282 24.088716,85.7880282 C22.2311284,85.7880282 21.8416342,80.8521127 20.2237354,80.8521127 C18.9354086,80.8521127 14.9206226,85.8788732 13.8120623,85.7577465 C13.3626459,85.6971831 13.1828794,85.3640845 13.2428016,84.9401408 C13.3027237,84.334507 13.8420233,82.6690141 14.051751,81.8816901 C14.411284,80.5190141 14.740856,79.0352113 14.9206226,78.5809859 C15.1003891,78.0964789 15.5797665,77.7633803 15.9692607,77.793662 C16.1789883,77.8239437 16.2389105,78.1873239 16.2988327,78.4901408 C16.5085603,79.5802817 16.8381323,80.7007042 17.1677043,80.7007042 C17.7968872,80.7007042 19.8342412,76.7338028 21.0326848,76.7338028 C22.5007782,76.7338028 22.6505837,82.971831 24.6579767,82.971831 C25.3171206,82.971831 25.7964981,82.184507 26.2459144,81.1852113 C26.2758755,79.55 26.7252918,77.1880282 28.0435798,77.1880282 C28.9723735,77.1880282 29.4217899,79.2774648 28.7326848,81.0943662 C28.6727626,83.2746479 30.0809339,83.8197183 31.0097276,83.8197183 L31.0097276,83.8197183 Z M66.2439689,78.4598592 C65.7046693,80.7612676 64.0568093,84.1225352 61.5700389,84.1225352 C61.0007782,84.1225352 59.9821012,83.9105634 59.9821012,83.3049296 C59.9821012,82.6690141 63.8470817,82.6084507 63.8470817,79.6105634 C63.8470817,78.4901408 62.8284047,76.9457746 61.3303502,76.9457746 C59.3529183,76.9457746 57.4054475,79.1260563 57.4054475,82.1542254 C57.4054475,84.8795775 59.0832685,85.7577465 60.7311284,85.7577465 C63.6373541,85.7577465 65.4050584,83.365493 66.3338521,81.3366197 C66.7832685,82.6690141 67.0229572,85.7577465 68.1315175,85.7577465 C68.5809339,85.7577465 68.8805447,85.5457746 69.4198444,84.334507 C70.7381323,81.3366197 72.0264591,77.9147887 73.7941634,77.9147887 C74.4533074,77.9147887 74.0638132,79.1260563 75.651751,79.1260563 C76.4007782,79.1260563 76.9400778,78.4901408 76.9400778,77.793662 C76.9400778,76.7640845 76.011284,75.9767606 74.6031128,75.9767606 C70.4684825,75.9767606 69.5696498,82.2450704 68.9105058,82.2450704 C67.8019455,82.2450704 68.1614786,77.2183099 67.3824903,77.2183099 C66.6634241,77.2183099 66.3338521,78.0661972 66.2439689,78.4598592 L66.2439689,78.4598592 Z M37.0019455,73.7964789 C36.9120623,72.5549296 36.6424125,71.9795775 35.9533074,72.0401408 C35.0844358,72.1007042 34.6649805,74.8866197 34.8447471,77.8239437 C34.9645914,79.7316901 35.2342412,80.034507 35.5038911,80.0042254 C36.0132296,79.9739437 37.1817121,76.5521127 37.0019455,73.7964789 L37.0019455,73.7964789 Z M29.8412451,71.1619718 C29.781323,70.4352113 29.2120623,69.9507042 28.463035,69.9507042 C27.6241245,69.9507042 26.8451362,70.8288732 26.9350195,71.9492958 C26.9949416,72.6760563 27.4143969,73.2816901 28.2533074,73.2816901 C29.2420233,73.3119718 29.9311284,72.1915493 29.8412451,71.1619718 L29.8412451,71.1619718 Z M43.5634241,80.2464789 C43.5634241,79.4894366 43.17393,78.8535211 42.6945525,78.8535211 C42.3050584,78.8535211 41.3762646,79.3077465 41.3762646,80.7309859 C41.3762646,81.8514085 41.7657588,82.3661972 41.9455253,82.6084507 C43.2038911,82.2147887 43.5634241,81.1549296 43.5634241,80.2464789 L43.5634241,80.2464789 Z M60.7610895,78.7323944 C61.6898833,78.7323944 61.9595331,79.8528169 61.7198444,80.5190141 C61.5101167,81.1852113 60.7011673,81.9422535 59.4727626,82.1542254 C59.2330739,81.4880282 59.0832685,78.7323944 60.7610895,78.7323944 L60.7610895,78.7323944 Z M10.036965,75.5830986 C9.91712062,75.1894366 9.55758755,74.2809859 9.43774319,73.584507 C9.22801556,72.1007042 9.9770428,71.1316901 10.6961089,70.8894366 C11.4750973,70.6774648 11.8046693,71.0711268 12.1042802,72.0098592 C12.4937743,73.4330986 12.5536965,75.3105634 12.4038911,77.9753521 C12.2241245,81.6394366 10.4264591,86.0302817 5.93229572,85.9394366 C2.06731518,85.8485915 0.329571984,83.3049296 0.149805447,79.4288732 C0.059922179,77.6119718 0.179766537,75.7647887 0.928793774,73.1908451 C1.31828794,71.7978873 1.67782101,71.3133803 2.90622568,71.0408451 C3.86498054,70.8591549 3.77509728,71.8887324 3.56536965,73.1 C3.08599222,75.7647887 2.8463035,77.0669014 3.02607004,80.0950704 C3.20583658,83.3049296 4.64396887,84.5464789 6.23190661,84.5464789 C8.59883268,84.6070423 9.67743191,82.578169 10.0968872,79.7014085 C10.5463035,77.4 10.2766537,76.2795775 10.036965,75.5830986 L10.036965,75.5830986 Z" id="Shape"></path>
                        <g transform="translate(6.891051, 0.000000)" id="Shape">
                            <path d="M55.0984436,17.6542254 C55.3980545,19.8950704 58.7536965,22.9232394 59.6824903,22.8626761 C60.2817121,22.8021127 60.5214008,19.9253521 60.5214008,17.6542254 C60.5214008,16.3521127 60.581323,15.3528169 59.922179,15.1105634 C58.8435798,17.3211268 56.0272374,17.7450704 55.0984436,17.6542254 L55.0984436,17.6542254 Z M55.3081712,16.6852113 C57.7350195,16.6852113 59.9521401,14.7169014 59.9521401,12.9908451 C59.9521401,12.1732394 59.5626459,11.5373239 58.6038911,11.4161972 C58.7536965,11.628169 58.8435798,11.7795775 58.8435798,12.1732394 C58.8435798,13.4753521 56.8961089,14.9288732 54.7688716,14.9288732 C53.9898833,14.9288732 53.7501946,15.4739437 53.7501946,15.7464789 C53.7501946,16.3823944 54.3793774,16.6852113 55.3081712,16.6852113 L55.3081712,16.6852113 Z M54.7988327,13.9901408 C54.4692607,13.9901408 53.9898833,13.9901408 53.7501946,13.4753521 C53.5404669,13.0514085 53.6003891,12.3549296 53.2108949,12.0521127 C53.6003891,12.1732394 54.0198444,12.1732394 54.3494163,12.1732394 C55.3980545,12.1732394 56.4167315,11.4464789 57.1957198,11.4464789 C57.7050584,11.4464789 57.8548638,11.7795775 57.8548638,12.1126761 C57.8548638,13.1422535 55.7575875,13.9901408 54.7988327,13.9901408 L54.7988327,13.9901408 Z"></path>
                            <path d="M2.51673152,32.5225352 C3.29571984,32.5225352 3.1459144,27.6169014 4.43424125,27.6169014 C4.73385214,27.6169014 4.82373541,27.9197183 4.82373541,28.3133803 C4.82373541,29.4338028 4.2844358,31.0690141 4.2844358,31.9471831 C4.2844358,32.4014085 4.40428016,32.5528169 4.61400778,32.5528169 C5.18326848,32.5528169 6.14202335,27.1323944 7.10077821,27.1323944 C7.40038911,27.1323944 7.55019455,27.4352113 7.55019455,27.7380282 C7.55019455,28.8584507 6.11206226,32.1288732 6.11206226,33.0373239 C6.11206226,33.1887324 6.17198444,33.3098592 6.2618677,33.3098592 C6.86108949,33.3098592 8.02957198,30.7661972 8.38910506,29.4943662 C8.59883268,28.828169 8.86848249,28.4647887 9.1381323,28.4647887 C9.37782101,28.4647887 9.58754864,28.7373239 9.58754864,29.2823944 C9.58754864,30.5542254 8.41906615,33.5521127 7.40038911,35.5809859 C6.62140078,37.0950704 5.39299611,39.3359155 5.39299611,40.6077465 C5.39299611,41.243662 5.51284047,41.9098592 6.41167315,42.6971831 C4.91361868,42.606338 4.31439689,42.4549296 3.74513619,41.2739437 C1.25836576,46.3007042 8.35914397,45.8161972 5.93229572,50.2676056 C5.48287938,49.4802817 1.97743191,48.6323944 1.97743191,43.9690141 C1.97743191,39.9415493 5.48287938,37.5795775 5.48287938,35.8838028 C5.48287938,35.5507042 5.36303502,35.278169 5.06342412,35.0056338 C4.2844358,34.3394366 4.25447471,33.7943662 3.65525292,33.7943662 C3.20583658,33.7943662 2.66653696,34.8239437 3.23579767,35.7626761 C3.4155642,36.065493 3.59533074,36.2471831 3.59533074,36.55 C3.59533074,37.2161972 2.5766537,38.9725352 1.85758755,38.9725352 C1.1385214,38.9725352 0.5692607,37.1556338 0.5692607,34.2183099 C0.5692607,31.6140845 1.1385214,29.0098592 1.88754864,29.0098592 C2.09727626,29.0098592 2.15719844,29.1612676 2.15719844,29.3429577 C2.15719844,29.6457746 2.06731518,30.2514085 2.06731518,31.3112676 C2.03735409,32.4316901 2.2770428,32.5225352 2.51673152,32.5225352 L2.51673152,32.5225352 Z"></path>
                            <path d="M8.44902724,39.4570423 C9.43774319,39.4570423 10.2466926,38.7302817 10.2466926,37.0950704 L10.2466926,34.6725352 C10.2466926,33.7640845 10.3066148,32.7042254 10.9357977,31.9774648 C10.8758755,32.2802817 10.8758755,32.6133803 10.8758755,32.9161972 C10.8758755,34.9450704 11.9844358,36.3380282 11.9844358,38.306338 C11.9844358,39.0330986 11.7747082,39.4267606 11.2054475,39.4267606 C10.6661479,39.4267606 10.72607,38.9422535 10.6062257,38.9422535 C10.5163424,38.9422535 10.366537,39.2450704 10.366537,39.578169 C10.366537,40.0626761 10.72607,40.85 11.6848249,40.85 C12.5237354,40.85 13.2128405,40.0626761 13.2128405,39.184507 C13.2128405,37.0647887 11.5649805,34.7028169 11.5649805,32.4316901 C11.5649805,31.4323944 11.8346304,30.7661972 12.044358,30.2514085 C12.044358,34.9450704 15.9992218,38.3669014 15.9992218,40.3352113 C15.9992218,40.7894366 15.6696498,41.1528169 15.1902724,41.1528169 C14.6509728,41.1528169 14.381323,40.7288732 14.381323,40.3957746 C14.381323,40.2443662 14.3513619,40.1838028 14.2914397,40.1838028 C14.1416342,40.1838028 13.722179,40.6683099 13.722179,41.2739437 C13.722179,42.0612676 14.3513619,43 15.5198444,43 C16.8381323,43 17.5871595,41.8795775 17.5871595,40.85 C17.5871595,38.3669014 12.7933852,34.6119718 12.7933852,30.584507 C12.7933852,29.8880282 12.9132296,28.7978873 13.392607,27.95 C10.3066148,29.9485915 9.34785992,32.6133803 9.34785992,34.9753521 C9.34785992,37.0042254 9.28793774,38.0338028 8.23929961,38.0338028 C7.7,38.0338028 7.55019455,37.5492958 7.37042802,37.5492958 C7.22062257,37.5492958 7.16070039,37.9732394 7.16070039,38.0943662 C7.19066148,38.9422535 7.81984436,39.4570423 8.44902724,39.4570423 L8.44902724,39.4570423 Z"></path>
                            <path d="M48.9564202,15.8373239 C49.9750973,15.8373239 50.7540856,15.3528169 50.7540856,15.0802817 C50.7540856,14.9894366 50.6042802,14.9288732 50.3046693,14.9288732 C50.0050584,14.9288732 49.4058366,14.8985915 48.2373541,14.7169014 C47.2486381,14.565493 46.4996109,14.171831 46.2299611,14.171831 C46.1400778,14.171831 46.0801556,14.2323944 46.0801556,14.2929577 C46.1101167,14.8985915 47.2486381,15.8373239 48.9564202,15.8373239 L48.9564202,15.8373239 Z M43.863035,12.8394366 C44.1626459,12.6274648 45.4809339,12.9605634 47.188716,12.1126761 C47.3984436,11.9915493 47.6081712,11.9612676 47.7879377,11.9612676 C48.5968872,11.9612676 48.3871595,12.9 49.1361868,12.9 C49.7054475,12.9 50.4544747,12.415493 50.9038911,12.415493 C51.5929961,12.415493 52.6116732,14.6260563 52.6116732,15.6859155 C52.6116732,16.8971831 50.8140078,17.6239437 48.6867704,17.6239437 C45.5708171,17.6239437 43.7132296,14.8985915 43.7132296,13.1119718 C43.7431907,12.9302817 43.8031128,12.9 43.863035,12.8394366 L43.863035,12.8394366 Z"></path>
                            <path d="M8.95836576,48.3598592 C8.17937743,48.5415493 6.95097276,49.7830986 6.95097276,51.7211268 C6.95097276,54.0225352 9.4077821,57.5957746 13.4525292,57.5957746 C16.8680934,57.5957746 17.7070039,55.2035211 17.7070039,53.5985915 C17.7070039,50.0253521 15.5498054,47.5119718 12.7035019,47.5119718 C11.1754864,47.5119718 9.76731518,48.6323944 9.76731518,50.328169 C9.76731518,51.9028169 10.9357977,54.234507 13.722179,54.234507 C15.0404669,54.234507 15.7894942,53.2957746 15.7894942,52.2056338 C15.7894942,51.1457746 14.8307393,49.6922535 13.4225681,49.6922535 C13.0031128,49.6922535 12.7035019,49.9647887 12.7035019,50.4190141 C12.7035019,50.9943662 13.4824903,51.5394366 14.4412451,51.5394366 C14.6809339,51.5394366 14.8607004,51.4788732 14.9505837,51.4485915 C15.0105058,51.5091549 15.0105058,51.6302817 15.0105058,51.7211268 C15.0105058,52.2661972 14.5011673,52.5992958 13.6922179,52.5992958 C12.4937743,52.5992958 11.3552529,51.6908451 11.3552529,50.2676056 C11.3552529,49.4197183 12.0743191,48.8140845 13.1229572,48.8140845 C15.1902724,48.8140845 16.4486381,50.6915493 16.4486381,52.5387324 C16.4486381,54.2042254 15.5498054,55.1732394 13.6622568,55.1732394 C9.94708171,55.2035211 8.14941634,51.8119718 8.95836576,48.3598592 L8.95836576,48.3598592 Z"></path>
                            <path d="M33.82607,57.4746479 C33.82607,57.9894366 34.2455253,58.4133803 34.7548638,58.4133803 C35.2642023,58.4133803 35.6836576,57.9894366 35.6836576,57.4746479 C35.6836576,56.9598592 35.2642023,56.5359155 34.7548638,56.5359155 C34.2455253,56.5359155 33.82607,56.9598592 33.82607,57.4746479 L33.82607,57.4746479 Z M35.6237354,62.1985915 C36.7322957,62.1985915 36.6723735,62.1077465 37.0319066,62.1077465 C37.3914397,62.1077465 37.3914397,62.3197183 37.3914397,62.4711268 C37.3914397,62.9859155 36.2529183,63.621831 34.2155642,63.621831 C33.0171206,63.621831 32.2980545,62.9859155 32.0883268,62.2591549 C30.9198444,63.0161972 29.1521401,63.7126761 27.3844358,63.7126761 C22.5906615,63.7126761 21.3922179,61.6232394 19.8941634,60.9267606 C18.755642,60.4119718 16.9879377,61.4112676 14.5311284,58.6556338 C14.8607004,58.7161972 15.3101167,58.7464789 15.6396887,58.7464789 C17.7968872,58.7464789 18.9354086,57.6866197 18.9354086,55.9908451 C18.9354086,55.7788732 18.9054475,55.5366197 18.8754864,55.3246479 C19.5346304,55.5971831 21.0326848,56.7176056 21.3922179,58.7161972 C21.4521401,58.9584507 22.4108949,59.1704225 23.0101167,59.1704225 C23.8490272,59.1704225 24.9276265,58.8070423 25.0774319,57.4140845 C27.8937743,57.171831 29.781323,55.506338 30.1708171,53.3866197 C31.1595331,53.7197183 32.3280156,54.628169 32.5976654,55.1126761 C32.9871595,54.9612676 33.466537,54.9007042 34.0058366,54.9007042 C34.7548638,54.9007042 35.5937743,55.0521127 36.6124514,55.3549296 C36.6723735,55.0521127 36.7023346,54.6584507 37.1817121,54.6584507 C37.8708171,54.6584507 37.6910506,55.4457746 37.9307393,55.9 C38.0505837,56.1422535 38.6198444,56.2633803 38.6198444,56.7478873 C38.6198444,57.2021127 38.2303502,57.3535211 38.0206226,57.3535211 C37.9307393,57.3535211 37.8108949,57.3232394 37.7509728,57.2929577 C37.2715953,57.4443662 37.2715953,60.8661972 35.2941634,60.8661972 C33.8560311,60.8661972 32.5077821,59.6549296 31.9385214,58.1408451 C31.788716,57.6866197 31.4291829,57.4140845 31.0996109,57.4140845 C30.7400778,57.4140845 30.5303502,57.4746479 30.0809339,57.9894366 C28.8225681,59.3823944 26.7252918,60.593662 24.118677,60.593662 C23.3097276,60.593662 22.6805447,60.5330986 22.5307393,60.5330986 C22.440856,60.5330986 22.440856,60.5633803 22.440856,60.593662 C22.440856,60.7450704 23.2498054,61.4112676 24.9575875,61.4112676 C29.0622568,61.4112676 30.0809339,59.0795775 30.7400778,59.0795775 C30.8299611,59.0795775 31.0996109,59.0795775 31.2793774,59.4429577 C32.2381323,61.6838028 34.3354086,62.1985915 35.6237354,62.1985915 L35.6237354,62.1985915 Z"></path>
                            <path d="M49.7953307,47.1485915 C49.3159533,47.1485915 46.5894942,50.8126761 44.851751,50.8126761 C44.4322957,50.8126761 44.0727626,49.9950704 44.0727626,49.3894366 C44.0727626,49.056338 44.2824903,48.8140845 45.0315175,48.6626761 C49.0463035,47.7542254 48.1474708,44.6957746 51.5929961,44.6957746 C53.4805447,44.6957746 55.577821,45.9978873 55.577821,48.9352113 C55.577821,52.0542254 51.1735409,55.9302817 50.544358,55.9302817 C50.0050584,55.9302817 49.4357977,55.1429577 49.4357977,54.628169 C49.4357977,54.4767606 49.4957198,54.2647887 49.9750973,54.0528169 C52.222179,53.1443662 53.5105058,51.0852113 53.5105058,50.0253521 C53.5105058,49.7830986 53.3906615,49.5408451 53.0910506,49.5408451 C52.7015564,49.5408451 50.9937743,53.4471831 49.1062257,53.4471831 C47.7879377,53.4471831 46.4696498,52.2359155 46.4696498,51.6908451 C46.4696498,50.7521127 50.2447471,48.9957746 50.2447471,47.6633803 C50.214786,47.1788732 50.0050584,47.1485915 49.7953307,47.1485915 L49.7953307,47.1485915 Z M52.3420233,45.6950704 C52.0124514,45.6950704 51.6529183,45.9676056 51.6529183,46.6035211 C51.6529183,47.3 52.1922179,47.7542254 52.4918288,47.9056338 C52.6416342,47.9964789 52.911284,48.0873239 53.1809339,48.0873239 C53.8700389,48.0873239 54.4093385,47.9056338 54.4093385,47.3302817 C54.3793774,46.5732394 53.3307393,45.6950704 52.3420233,45.6950704 L52.3420233,45.6950704 Z"></path>
                            <path d="M8.65875486,18.3204225 C8.65875486,18.8352113 9.07821012,19.2591549 9.58754864,19.2591549 C10.0968872,19.2591549 10.5163424,18.8352113 10.5163424,18.3204225 C10.5163424,17.8056338 10.0968872,17.3816901 9.58754864,17.3816901 C9.10817121,17.3816901 8.65875486,17.8056338 8.65875486,18.3204225 L8.65875486,18.3204225 Z M7.46031128,16.2007042 C7.46031128,16.715493 7.87976654,17.1394366 8.38910506,17.1394366 C8.89844358,17.1394366 9.31789883,16.715493 9.31789883,16.2007042 C9.31789883,15.6859155 8.89844358,15.2619718 8.38910506,15.2619718 C7.87976654,15.2619718 7.46031128,15.6859155 7.46031128,16.2007042 L7.46031128,16.2007042 Z M6.62140078,22.6809859 C6.08210117,22.8323944 4.97354086,23.4985915 4.97354086,24.6795775 C4.97354086,25.5274648 5.63268482,26.0725352 6.44163424,26.0725352 C6.86108949,26.0725352 7.16070039,25.9816901 7.34046693,25.8302817 C6.68132296,25.1943662 6.44163424,24.4978873 6.44163424,23.7711268 C6.44163424,23.256338 6.53151751,22.9535211 6.62140078,22.6809859 L6.62140078,22.6809859 Z M0.898832685,23.0140845 C0.868871595,23.1352113 0.868871595,23.256338 0.868871595,23.3774648 C0.868871595,24.4978873 1.4381323,25.1035211 2.21712062,25.1035211 C2.78638132,25.1035211 3.47548638,24.7401408 4.07470817,23.9830986 C3.80505837,24.043662 3.50544747,24.043662 3.23579767,24.043662 C2.39688716,24.0133803 1.4381323,23.7711268 0.898832685,23.0140845 L0.898832685,23.0140845 Z M0.059922179,25.1035211 C0.059922179,26.8901408 0.59922179,27.7380282 1.55797665,27.7380282 C2.30700389,27.7380282 3.29571984,27.1929577 4.49416342,26.1633803 C3.59533074,26.3753521 2.87626459,26.5267606 2.24708171,26.5267606 C1.4381323,26.5267606 0.778988327,26.193662 0.059922179,25.1035211 L0.059922179,25.1035211 Z M6.11206226,15.6556338 C6.23190661,15.2922535 6.32178988,14.8077465 6.32178988,14.2929577 C6.32178988,13.1725352 5.81245136,11.4464789 4.22451362,11.4464789 C3.32568093,11.4464789 2.66653696,12.1732394 2.66653696,13.0514085 C2.66653696,14.8985915 4.52412451,15.6556338 6.11206226,15.6556338 L6.11206226,15.6556338 Z M4.13463035,21.6211268 C3.35564202,21.6211268 2.51673152,20.6521127 2.51673152,19.7739437 C2.51673152,19.2894366 2.87626459,18.7140845 3.11595331,18.7140845 C3.20583658,18.7140845 3.26575875,18.7746479 3.26575875,18.956338 C3.4155642,20.1070423 4.16459144,20.7732394 4.8536965,21.106338 C4.91361868,21.1669014 4.97354086,21.1669014 4.97354086,21.2274648 C5.00350195,21.3788732 4.5540856,21.6211268 4.13463035,21.6211268 L4.13463035,21.6211268 Z M6.29182879,18.7140845 C6.44163424,18.9260563 6.89105058,19.1985915 6.89105058,19.3802817 C6.89105058,19.7133803 6.71128405,20.1373239 6.32178988,20.1373239 C5.51284047,20.1373239 4.8536965,18.8957746 4.8536965,18.1690141 C4.8536965,17.7147887 5.1233463,17.684507 5.45291829,17.684507 C5.60272374,17.684507 5.692607,17.7147887 5.81245136,17.7753521 C6.02217899,17.8964789 6.02217899,18.3809859 6.29182879,18.7140845 L6.29182879,18.7140845 Z M0.808949416,21.6514085 C0.778988327,21.7119718 0.749027237,21.8028169 0.749027237,21.9239437 C0.749027237,22.1359155 0.988715953,22.378169 1.19844358,22.378169 C1.37821012,22.378169 1.49805447,22.3176056 1.58793774,22.3176056 C2.15719844,22.3176056 2.78638132,22.7112676 3.68521401,22.7112676 C4.22451362,22.7112676 4.8536965,22.5598592 5.66264591,22.1359155 C7.34046693,21.2880282 7.99961089,19.1683099 7.99961089,18.8352113 C7.99961089,18.3809859 7.64007782,18.4415493 7.34046693,18.0176056 C7.04085603,17.593662 7.16070039,17.2302817 6.98093385,17.0485915 C6.86108949,16.9274648 6.53151751,16.9274648 6.11206226,16.8971831 C5.96225681,16.8669014 5.78249027,16.8669014 5.60272374,16.8669014 C4.82373541,16.8669014 3.92490272,16.9577465 2.90622568,17.6239437 C0.838910506,18.956338 1.10856031,21.106338 0.808949416,21.6514085 L0.808949416,21.6514085 Z M8.5688716,20.7126761 C8.05953307,21.3183099 7.52023346,22.378169 7.52023346,23.4380282 C7.52023346,24.7098592 8.29922179,25.7697183 9.49766537,25.7697183 C10.6361868,25.7697183 11.1754864,24.7704225 11.1754864,23.7711268 C11.1455253,22.1661972 9.73735409,21.0760563 8.5688716,20.7126761 L8.5688716,20.7126761 Z M3.56536965,16.1704225 C3.56536965,16.1704225 2.87626459,16.6852113 2.03735409,16.6852113 C1.01867704,16.6852113 0.239688716,15.928169 0.239688716,14.8683099 C0.239688716,14.1415493 0.59922179,13.384507 1.46809339,12.9908451 C1.4381323,13.1422535 1.4381323,13.2633803 1.4381323,13.384507 C1.4381323,14.7471831 2.18715953,15.7767606 3.56536965,16.1704225 L3.56536965,16.1704225 Z"></path>
                            <path d="M44.7618677,24.0133803 C44.7618677,24.5584507 45.211284,25.0126761 45.7505837,25.0126761 C46.2898833,25.0126761 46.7392996,24.5584507 46.7392996,24.0133803 C46.7392996,23.4683099 46.2898833,23.0140845 45.7505837,23.0140845 C45.211284,23.0140845 44.7618677,23.4683099 44.7618677,24.0133803 L44.7618677,24.0133803 Z M44.8217899,26.9809859 C44.8217899,27.5866197 45.3011673,28.1014085 45.9303502,28.1014085 C46.529572,28.1014085 47.0389105,27.6169014 47.0389105,26.9809859 C47.0389105,26.3753521 46.5595331,25.8605634 45.9303502,25.8605634 C45.3311284,25.8908451 44.8217899,26.3753521 44.8217899,26.9809859 L44.8217899,26.9809859 Z M41.4661479,29.0098592 C41.4661479,29.9183099 42.185214,30.6450704 43.0840467,30.6450704 C43.9828794,30.6450704 44.7019455,29.9183099 44.7019455,29.0098592 C44.7019455,28.1014085 43.9828794,27.3746479 43.0840467,27.3746479 C42.185214,27.3746479 41.4661479,28.1014085 41.4661479,29.0098592 L41.4661479,29.0098592 Z M42.3350195,25.6788732 C42.3350195,26.193662 42.7544747,26.6176056 43.2638132,26.6176056 C43.7731518,26.6176056 44.192607,26.193662 44.192607,25.6788732 C44.192607,25.1640845 43.7731518,24.7401408 43.2638132,24.7401408 C42.7544747,24.7401408 42.3350195,25.1640845 42.3350195,25.6788732 L42.3350195,25.6788732 Z M39.2789883,27.556338 C39.2789883,28.0711268 39.6984436,28.4950704 40.2077821,28.4950704 C40.7171206,28.4950704 41.1365759,28.0711268 41.1365759,27.556338 C41.1365759,27.0415493 40.7171206,26.6176056 40.2077821,26.6176056 C39.6984436,26.6176056 39.2789883,27.0415493 39.2789883,27.556338 L39.2789883,27.556338 Z M41.6758755,22.0450704 C41.6758755,22.8626761 42.3649805,23.5591549 43.17393,23.5591549 C43.9828794,23.5591549 44.6719844,22.8626761 44.6719844,22.0450704 C44.6719844,21.2274648 43.9828794,20.5309859 43.17393,20.5309859 C42.3649805,20.5309859 41.6758755,21.1971831 41.6758755,22.0450704 L41.6758755,22.0450704 Z M43.4136187,19.1380282 C43.4136187,19.6225352 43.8031128,20.0464789 44.3124514,20.0464789 C44.7918288,20.0464789 45.211284,19.6528169 45.211284,19.1380282 C45.211284,18.6535211 44.8217899,18.2295775 44.3124514,18.2295775 C43.8330739,18.2295775 43.4136187,18.6232394 43.4136187,19.1380282 L43.4136187,19.1380282 Z M39.1891051,21.4091549 C39.1891051,21.893662 39.5785992,22.3176056 40.0579767,22.3176056 C40.5373541,22.3176056 40.9568093,21.9239437 40.9568093,21.4091549 C40.9568093,20.9246479 40.5673152,20.5007042 40.0579767,20.5007042 C39.6085603,20.5007042 39.1891051,20.8943662 39.1891051,21.4091549 L39.1891051,21.4091549 Z M39.0692607,24.4676056 C39.0692607,25.2852113 39.6984436,25.9211268 40.4774319,25.9211268 C41.2863813,25.9211268 41.9155642,25.2852113 41.9155642,24.4676056 C41.9155642,23.65 41.2863813,23.0140845 40.4774319,23.0140845 C39.6984436,23.0140845 39.0692607,23.65 39.0692607,24.4676056 L39.0692607,24.4676056 Z M36.1330739,25.9816901 C36.1330739,26.7084507 36.7322957,27.3140845 37.4513619,27.3140845 C38.170428,27.3140845 38.7696498,26.7084507 38.7696498,25.9816901 C38.7696498,25.2549296 38.170428,24.6492958 37.4513619,24.6492958 C36.7322957,24.6190141 36.1330739,25.2549296 36.1330739,25.9816901 L36.1330739,25.9816901 Z M36.9420233,22.6507042 C36.9420233,23.165493 37.3614786,23.5894366 37.8708171,23.5894366 C38.3801556,23.5894366 38.7996109,23.165493 38.7996109,22.6507042 C38.7996109,22.1359155 38.3801556,21.7119718 37.8708171,21.7119718 C37.3614786,21.7119718 36.9420233,22.1359155 36.9420233,22.6507042 L36.9420233,22.6507042 Z M45.1214008,29.9183099 C45.1214008,29.4338028 45.540856,29.0401408 45.9902724,29.0401408 C46.4996109,29.0401408 46.8891051,29.4338028 46.8891051,29.9183099 C46.8891051,30.4633803 46.4996109,30.8267606 45.9902724,30.8267606 C45.5708171,30.8570423 45.1214008,30.4633803 45.1214008,29.9183099 L45.1214008,29.9183099 Z"></path>
                            <path d="M45.7505837,57.0809859 C45.870428,57.0809859 46.0202335,57.1415493 46.0202335,57.565493 C46.0202335,58.0802817 45.7805447,58.7767606 44.9416342,59.321831 C44.3424125,59.715493 43.5634241,60.0485915 42.3949416,60.0788732 C42.5747082,59.5035211 42.7245136,58.928169 42.7245136,58.3528169 C42.7245136,58.1711268 42.6945525,58.0197183 42.6645914,57.8077465 L42.9642023,57.8077465 C44.8217899,57.8380282 45.6007782,57.0809859 45.7505837,57.0809859 L45.7505837,57.0809859 Z M45.9303502,54.7492958 C46.1101167,54.5978873 46.1700389,54.3253521 46.1700389,54.0528169 L46.1700389,53.5077465 C46.1700389,52.8112676 45.1513619,52.4176056 43.7431907,52.4176056 C42.0354086,52.4176056 41.1365759,53.2049296 41.1365759,53.5380282 L41.1365759,54.628169 C41.1365759,55.0823944 42.1552529,55.5366197 43.4435798,55.5366197 C44.4023346,55.5366197 45.3311284,55.2640845 45.9303502,54.7492958 L45.9303502,54.7492958 Z M47.1287938,55.021831 C46.529572,55.506338 45.0914397,56.5661972 42.7245136,56.5661972 C41.4661479,56.5661972 40.8968872,56.1725352 40.7171206,56.1725352 C40.4774319,56.1725352 40.2377432,56.4147887 39.9680934,56.7176056 C39.3988327,57.3838028 38.6797665,58.5950704 38.6797665,59.9577465 C38.6797665,60.8964789 39.3988327,61.8352113 40.7470817,61.8352113 C45.1214008,61.8352113 48.3871595,59.0795775 48.3871595,56.8387324 C48.4171206,55.5366197 47.6680934,55.021831 47.1287938,55.021831 L47.1287938,55.021831 Z"></path>
                            <path d="M47.9677043,35.1570423 C47.9677043,35.7323944 48.1474708,36.4288732 48.7466926,36.4288732 C49.22607,36.4288732 49.6455253,35.671831 49.6455253,34.8542254 C49.6455253,33.915493 49.4957198,33.1887324 49.4957198,32.7950704 C49.4957198,32.643662 49.555642,32.5528169 49.6455253,32.5528169 C50.0050584,32.5830986 50.3346304,33.5521127 50.6941634,33.5521127 C51.1136187,33.5521127 51.7428016,32.7647887 52.0124514,32.7647887 C52.0723735,32.7647887 52.1023346,32.8556338 52.1023346,32.8859155 C52.1023346,33.2492958 51.563035,34.0366197 51.563035,34.3394366 C51.563035,34.6119718 52.911284,34.6422535 52.911284,34.884507 C52.911284,35.2478873 51.5031128,35.2478873 50.8140078,35.5507042 C50.1548638,35.8232394 49.7653696,36.1866197 49.7653696,36.6711268 C49.7653696,37.1556338 50.2447471,37.2464789 50.9038911,37.2464789 C52.4618677,37.2464789 53.570428,36.3985915 53.9,36.3985915 C53.9599222,36.3985915 54.0198444,36.4591549 54.0198444,36.5197183 C54.0198444,36.7619718 53.2108949,37.5492958 53.2108949,37.8823944 C53.2108949,38.2760563 54.6490272,38.7605634 54.6490272,39.0028169 C54.6190661,39.0633803 54.5291829,39.093662 54.3793774,39.093662 C54.1097276,39.093662 53.7202335,39.0330986 53.4206226,39.0330986 C53.240856,39.0330986 53.0610895,39.0633803 53.0011673,39.1542254 C52.8513619,39.3359155 53.0610895,40.6077465 52.7315175,40.6077465 C52.4319066,40.6077465 51.6229572,37.821831 49.8252918,37.821831 C49.555642,37.821831 49.3758755,38.0338028 49.3758755,38.3971831 C49.3758755,39.3359155 50.2747082,40.4260563 51.1435798,40.9408451 C51.5330739,41.2133803 52.1922179,41.4556338 52.1922179,41.6070423 C52.1922179,41.8795775 50.6941634,41.6373239 50.6941634,42.0915493 C50.6941634,42.515493 50.87393,43.1514085 50.87393,43.5450704 C50.87393,43.6661972 50.8439689,43.8176056 50.7241245,43.8176056 C50.4544747,43.8176056 49.7653696,42.515493 49.4357977,42.515493 C49.1661479,42.515493 48.536965,43.3028169 48.2972763,43.3028169 C48.2373541,43.3028169 48.1774319,43.2422535 48.1774319,43.1514085 C48.1774319,42.606338 49.0463035,41.3647887 49.0463035,40.1838028 C49.0463035,39.6084507 48.9863813,38.3971831 48.2972763,38.3971831 C47.7280156,38.3971831 47.0988327,39.3056338 46.8291829,40.1838028 C46.6793774,40.6985915 46.7692607,42.6971831 46.4097276,42.6971831 C46.0501946,42.6971831 46.1400778,41.3647887 45.6906615,41.3647887 C45.3311284,41.3647887 44.6120623,42.0007042 44.3424125,42.0007042 C44.2824903,42.0007042 44.2525292,41.9704225 44.2525292,41.9401408 C44.2525292,41.6676056 44.9416342,40.7288732 44.9416342,40.5471831 C44.9416342,40.1838028 43.3836576,40.1535211 43.3836576,39.8507042 C43.3836576,39.6992958 43.9828794,39.578169 44.5521401,39.4873239 C45.7505837,39.2753521 47.4883268,38.3971831 47.4883268,37.1859155 C47.4883268,35.8232394 46.1700389,35.2176056 45.3311284,34.6725352 C44.8817121,34.4 44.4023346,34.1577465 44.4023346,33.9760563 C44.4023346,33.7943662 44.9715953,33.7943662 45.211284,33.7943662 C45.5708171,33.7943662 45.9003891,33.7640845 45.9003891,33.4915493 C45.9003891,33.2795775 45.8404669,32.8556338 45.8404669,32.5225352 C45.8404669,32.2802817 45.870428,32.0985915 45.9603113,32.0985915 C46.3198444,32.0985915 46.7992218,33.2492958 47.0389105,33.2492958 C47.3984436,33.2492958 47.9377432,32.3105634 48.2673152,32.3105634 C48.3871595,32.3105634 48.4171206,32.3711268 48.4171206,32.5830986 C48.4171206,33.3098592 47.9677043,34.2788732 47.9677043,35.1570423 L47.9677043,35.1570423 Z M36.822179,28.2225352 C37.0918288,30.2211268 39.7583658,29.221831 39.7583658,31.6443662 C39.7583658,32.0077465 39.6684825,32.5225352 39.6684825,32.9767606 C39.6684825,33.4915493 39.7284047,33.9457746 40.1178988,33.9457746 C40.507393,33.9457746 40.5972763,33.6732394 40.5972763,33.2795775 C40.5972763,32.9161972 40.507393,32.4316901 40.507393,32.1591549 C40.507393,31.3415493 41.1066148,31.1295775 41.4361868,31.1295775 C42.3350195,31.1295775 42.9941634,32.0380282 44.3424125,32.0380282 C44.0428016,33.5521127 40.9568093,33.1584507 40.9568093,34.793662 C40.9568093,35.6112676 41.7657588,35.8232394 42.3050584,35.8232394 C42.7844358,35.8232394 42.9642023,35.7626761 42.9642023,35.3387324 C42.9642023,35.0964789 42.9042802,34.8542254 42.9042802,34.6725352 C42.9042802,34.5816901 42.9642023,34.4908451 43.0840467,34.4908451 C43.5933852,34.4908451 46.1101167,36.4288732 46.1101167,37.034507 C46.1101167,37.5795775 43.4435798,38.1246479 42.6645914,38.1246479 C42.4249027,38.1246479 42.3949416,37.9732394 42.3949416,37.8521127 C42.3949416,37.7007042 42.7844358,37.1859155 42.7844358,36.9133803 C42.7844358,36.7014085 42.4249027,36.55 41.4961089,36.55 C41.0466926,36.55 40.7171206,36.6105634 40.7171206,36.943662 C40.7171206,37.5795775 41.7357977,38.3669014 41.7357977,38.9422535 C41.7357977,39.4267606 41.4661479,39.6992958 40.7171206,39.6992958 C40.0879377,39.6992958 39.1291829,39.2147887 39.1291829,38.3669014 C39.1291829,37.7007042 39.7883268,37.034507 39.7883268,36.6408451 C39.7883268,36.5197183 39.6984436,36.3380282 39.4287938,36.3380282 C38.5599222,36.3380282 38.3202335,38.6394366 35.2642023,38.9119718 C35.7435798,38.4577465 36.163035,37.9732394 36.163035,36.943662 C36.163035,36.4591549 36.0431907,36.0352113 36.0431907,35.4901408 C36.0431907,34.793662 36.3727626,34.4302817 36.8521401,34.4302817 C37.7210117,34.4302817 38.1404669,35.671831 38.7097276,35.671831 C39.0093385,35.671831 39.3389105,35.3992958 39.3389105,34.9753521 C39.3389105,33.1887324 35.9233463,33.4309859 35.9233463,30.9176056 C35.9533074,30.2514085 36.1929961,29.4035211 36.822179,28.2225352 L36.822179,28.2225352 Z"></path>
                            <path d="M41.2564202,43.5753521 C41.2564202,43.9084507 41.4961089,44.1507042 41.8256809,44.1507042 C42.185214,44.1507042 42.4249027,43.8176056 42.4249027,43.4542254 C42.4249027,42.9697183 41.9754864,42.2732394 41.5560311,42.2732394 C41.3762646,42.2732394 41.4361868,42.5457746 41.4062257,42.8788732 C41.3762646,43.0908451 41.2564202,43.393662 41.2564202,43.5753521 L41.2564202,43.5753521 Z M40.0280156,40.4260563 C42.4848249,40.9105634 43.8031128,42.7577465 43.8031128,44.5140845 C43.8031128,45.7253521 43.0540856,46.815493 41.7357977,46.815493 C40.5373541,46.815493 39.6684825,45.9978873 39.6684825,44.665493 C39.6684825,43.6661972 40.4474708,42.6366197 40.4474708,41.6070423 C40.4774319,41.243662 40.3575875,40.85 40.0280156,40.4260563 L40.0280156,40.4260563 Z M36.9420233,44.4535211 C37.1817121,44.6957746 37.2416342,44.9380282 37.2416342,45.15 C37.2416342,45.5133803 37.0918288,45.8767606 37.0918288,46.2704225 C37.0918288,46.8457746 37.511284,47.3302817 38.1105058,47.3302817 C38.7696498,47.3302817 39.2190661,46.815493 39.2190661,46.2098592 C39.1891051,45.3316901 38.2902724,44.4535211 36.9420233,44.4535211 L36.9420233,44.4535211 Z M44.6719844,42.9394366 C44.8217899,43.2119718 44.9116732,43.4542254 44.9116732,43.6964789 C44.9116732,44.3626761 44.4622568,44.9683099 44.4622568,45.6647887 C44.4622568,46.4521127 45.0614786,47.0880282 45.9303502,47.0880282 C46.8891051,47.0880282 47.548249,46.3007042 47.548249,45.3922535 C47.548249,44.1204225 46.4097276,43.0605634 44.6719844,42.9394366 L44.6719844,42.9394366 Z M37.481323,41.6978873 C38.5599222,41.8492958 38.829572,42.2126761 38.829572,42.515493 C38.829572,43.0302817 38.3501946,43.2119718 37.9007782,43.2119718 C37.5712062,43.2119718 37.2116732,43.1514085 36.7922179,43.1514085 C36.2828794,43.1514085 35.7735409,43.2725352 35.3540856,43.7570423 C35.6536965,43.8176056 36.1031128,44.0295775 36.1031128,44.4838028 C36.1031128,45.8464789 32.3280156,44.7260563 32.3280156,48.2387324 C32.3280156,50.1161972 34.2455253,52.1450704 37.151751,52.1450704 C38.6498054,52.1450704 39.6085603,51.6605634 39.6085603,51.0852113 C39.6085603,50.6309859 38.7996109,50.9338028 38.7996109,50.5704225 C38.7996109,50.4190141 39.0692607,50.0859155 39.0692607,49.843662 C39.0692607,49.7225352 38.9793774,49.5105634 38.7996109,49.5105634 C38.3801556,49.5105634 37.5712062,50.2070423 35.9832685,50.2070423 C34.7249027,50.2070423 33.4964981,49.4802817 33.4964981,48.4809859 C33.4964981,48.2690141 33.5863813,48.1478873 33.7361868,48.1478873 C33.8859922,48.1478873 34.0657588,48.2387324 34.2155642,48.2387324 C34.3653696,48.2387324 34.3653696,48.1478873 34.3653696,47.8753521 C34.3653696,47.6028169 34.3653696,46.8760563 34.814786,46.8760563 C35.2642023,46.8760563 36.1031128,48.5415493 39.3389105,48.5415493 C40.4175097,48.5415493 42.4848249,48.3295775 43.2638132,47.6330986 C43.2338521,50.2373239 41.2264591,53.6591549 37.0319066,53.6591549 C32.6575875,53.6591549 30.3206226,50.1161972 30.3206226,46.8457746 C30.3206226,43.2422535 33.2268482,39.9415493 37.2416342,39.9415493 C38.2603113,39.9415493 39.1291829,40.3049296 39.1291829,40.7288732 C39.1291829,41.334507 37.6011673,40.9408451 37.481323,41.6978873 L37.481323,41.6978873 Z"></path>
                            <path d="M22.3809339,14.7169014 C23.9089494,14.7169014 24.6280156,16.0492958 24.6280156,17.5633803 C24.6280156,18.2295775 24.448249,19.1985915 24.1486381,19.1985915 C23.8490272,19.1985915 23.8789883,18.6535211 23.8490272,18.1690141 C23.7891051,17.5330986 23.6992218,17.3816901 23.4894942,17.3816901 C23.1,17.3816901 22.8303502,18.3204225 22.8303502,19.1985915 C22.8303502,19.743662 22.9202335,20.3492958 23.3396887,20.3492958 C23.5793774,20.3492958 23.7891051,20.228169 23.9389105,20.0767606 C23.8490272,21.1669014 23.0400778,22.1056338 21.9315175,22.1056338 C19.8642023,22.1056338 19.1151751,19.6830986 18.8754864,18.2598592 C17.6470817,19.5922535 16.4785992,20.5612676 14.4412451,20.5612676 C12.5237354,20.5612676 11.6548638,19.1380282 11.6548638,17.8056338 C11.6548638,17.4119718 11.8046693,16.3521127 12.2840467,16.3521127 C12.8533074,16.3521127 12.3439689,18.2901408 13.5124514,18.2901408 C13.7821012,18.2901408 14.3214008,18.0478873 14.5910506,17.2605634 C14.740856,16.7760563 14.8607004,16.2915493 14.8607004,15.8676056 C14.8607004,15.2316901 14.7108949,14.8380282 14.2614786,14.8380282 C13.8719844,14.8380282 13.3626459,15.1408451 13.2128405,15.3225352 C13.7821012,13.6267606 15.1303502,12.7485915 16.6284047,12.7485915 C18.4859922,12.7485915 19.4447471,14.4140845 19.4447471,16.2309859 C19.4447471,16.5035211 19.414786,16.7760563 19.3848249,17.0485915 C20.07393,15.7161972 21.1824903,14.7169014 22.3809339,14.7169014 L22.3809339,14.7169014 Z M20.5832685,17.5028169 C20.5832685,17.1091549 20.4933852,17.0183099 20.4035019,17.0183099 C20.1638132,17.0183099 19.9241245,17.2908451 19.5346304,17.9267606 C19.5945525,18.7746479 19.7143969,19.1683099 19.9540856,19.1683099 C20.1937743,19.1380282 20.5832685,18.3204225 20.5832685,17.5028169 L20.5832685,17.5028169 Z M17.3774319,18.471831 C17.6470817,18.471831 17.9766537,18.1992958 18.5758755,17.5028169 C18.6357977,17.2 18.6357977,16.8971831 18.6357977,16.5640845 C18.6357977,16.0795775 18.4560311,15.5647887 18.1564202,15.5647887 C17.4673152,15.5647887 17.1077821,17.4422535 17.1077821,17.9570423 C17.077821,18.2295775 17.2276265,18.471831 17.3774319,18.471831 L17.3774319,18.471831 Z M21.1824903,20.5612676 C21.751751,20.5612676 22.4108949,18.2901408 22.4108949,16.8669014 C22.4108949,16.5640845 22.3509728,16.2309859 22.2311284,16.2309859 C21.751751,16.2309859 20.9128405,18.5626761 20.9128405,19.834507 C20.9128405,20.3492958 21.0326848,20.5612676 21.1824903,20.5612676 L21.1824903,20.5612676 Z M15.4599222,19.2591549 C16.2688716,19.2591549 17.1677043,14.8985915 17.1677043,14.171831 C17.1677043,13.9901408 17.1077821,13.8387324 16.9280156,13.8387324 C16.2089494,13.8387324 15.1902724,17.9873239 15.1902724,18.8957746 C15.1902724,19.0774648 15.2501946,19.2591549 15.4599222,19.2591549 L15.4599222,19.2591549 Z"></path>
                            <path d="M18.0066148,21.0760563 C16.9879377,21.0760563 16.9579767,22.3176056 16.9579767,24.7704225 C16.2089494,23.1352113 14.9805447,21.3788732 13.5124514,21.3788732 C12.5237354,21.3788732 12.1642023,22.0450704 12.1642023,23.1957746 C12.1642023,23.4380282 12.1941634,23.8014085 12.2241245,24.0133803 C12.3439689,23.6197183 12.7035019,23.4380282 13.1828794,23.4380282 C14.2015564,23.4380282 15.4,24.2253521 16.2089494,25.2852113 C15.3101167,25.1338028 14.411284,24.9521127 13.6622568,24.9521127 C13.1828794,24.9521127 12.7634241,25.0126761 12.4338521,25.1640845 C11.7447471,25.4669014 10.8459144,26.4964789 10.8459144,28.0105634 C10.8459144,28.2528169 10.8758755,28.4950704 10.9058366,28.7978873 C11.714786,26.9507042 13.9019455,26.1330986 15.3101167,26.1330986 C15.5797665,26.1330986 15.7894942,26.1633803 15.9692607,26.193662 C15.2501946,26.8598592 15.070428,28.0105634 15.0404669,28.7978873 C15.0105058,29.1612676 14.8906615,29.1915493 14.6210117,29.1915493 C14.6210117,29.9788732 15.2202335,31.1295775 15.2202335,31.7049296 C15.2202335,31.9169014 15.1003891,32.0985915 14.9805447,32.1591549 C14.9805447,33.1887324 15.9992218,33.9457746 15.9992218,34.6119718 C15.9992218,34.7633803 15.9392996,34.9147887 15.8793774,34.9753521 C15.9392996,35.3992958 17.077821,36.1260563 17.2276265,36.4591549 C17.407393,36.8830986 17.6171206,36.9739437 17.736965,36.9739437 C18.1264591,36.9739437 18.755642,36.4894366 18.755642,36.065493 C18.755642,35.9140845 18.6357977,35.7626761 18.5459144,35.7021127 C18.0964981,35.3690141 17.8568093,34.6725352 17.6770428,34.1880282 C17.5272374,34.1880282 17.2875486,34.1274648 17.2276265,33.8549296 C17.1077821,33.3704225 17.1077821,32.4619718 16.8980545,31.9169014 C16.5984436,31.856338 16.4486381,31.7352113 16.4486381,31.0992958 C16.4486381,30.7964789 16.6284047,29.5852113 16.6284047,29.1612676 C16.4785992,29.1612676 16.2988327,29.0704225 16.2988327,28.7978873 C16.2988327,28.0408451 17.0478599,27.465493 17.2575875,26.4964789 C18.5758755,27.4957746 18.9054475,28.4950704 18.9054475,29.4035211 C18.9054475,29.8880282 18.8455253,30.3119718 18.755642,30.7359155 C19.744358,30.2514085 21.2124514,29.4943662 21.2124514,28.0105634 C21.2124514,27.1323944 20.8229572,26.1633803 18.1863813,25.8 C18.9953307,25.4971831 20.0439689,25.315493 20.8828794,25.315493 C22.3809339,25.315493 23.2498054,25.8 23.429572,26.8598592 C23.7291829,26.3753521 23.9688716,25.8302817 23.9688716,25.3457746 C23.9688716,24.1950704 23.0101167,23.4380282 21.7817121,23.4380282 C20.3435798,23.4380282 19.085214,24.1950704 17.736965,25.1035211 C18.3361868,23.8316901 18.755642,23.0746479 19.5046693,23.0746479 C19.6245136,23.0746479 19.744358,23.1049296 19.8642023,23.1352113 C19.6245136,22.0753521 18.5459144,21.0760563 18.0066148,21.0760563 L18.0066148,21.0760563 Z"></path>
                            <path d="M57.3754864,38.0943662 C58.5439689,38.0943662 59.4727626,39.6387324 59.4727626,41.4253521 C59.4727626,43.3330986 58.57393,45.4225352 56.9859922,46.8457746 C56.9560311,43.6661972 53.0910506,44.665493 53.0910506,42.3640845 C53.0910506,41.3647887 53.7801556,40.6985915 54.6490272,40.6985915 C55.3980545,40.6985915 55.9673152,40.9105634 56.4167315,41.334507 C55.9972763,40.9408451 55.7875486,40.365493 55.7875486,39.8204225 C55.7875486,38.9119718 56.3568093,38.0943662 57.3754864,38.0943662 L57.3754864,38.0943662 Z"></path>
                            <path d="M40.0280156,13.9295775 C39.848249,13.6267606 39.1291829,13.4450704 38.829572,13.4450704 C37.8108949,13.4450704 37.0918288,14.171831 36.9719844,14.8380282 C36.8821012,14.5957746 36.822179,14.3232394 36.822179,14.0204225 C36.822179,12.9908451 37.511284,11.7190141 39.2190661,11.7190141 C40.7171206,11.7190141 41.2863813,12.506338 41.4961089,12.506338 C41.7357977,12.506338 41.9754864,12.2640845 42.1552529,12.2640845 C42.4249027,12.2640845 42.4249027,12.6577465 42.4249027,12.9605634 C42.4249027,13.8992958 42.0054475,15.534507 40.9568093,16.1401408 C40.7770428,15.7464789 40.3875486,15.2922535 39.7883268,15.0197183 C39.6385214,14.9591549 39.5486381,14.8077465 39.5486381,14.656338 C39.518677,14.4140845 39.7583658,14.0809859 40.0280156,13.9295775 L40.0280156,13.9295775 Z M36.5225681,15.6556338 C37.1217899,16.2612676 37.6610895,16.5035211 38.3202335,16.5035211 C38.5898833,16.5035211 38.8894942,16.4429577 39.0392996,16.4429577 C39.2490272,16.4429577 39.3988327,16.5338028 39.3988327,16.715493 C39.3988327,16.9880282 39.159144,17.4119718 38.8894942,17.6239437 C39.159144,17.7450704 39.488716,17.7753521 39.7883268,17.7753521 C41.1066148,17.7753521 42.6346304,16.9274648 42.6346304,14.8077465 C42.9042802,15.1711268 43.0840467,15.9584507 43.0840467,16.321831 C43.0840467,18.8957746 41.2264591,19.8950704 39.488716,19.8950704 C38.3501946,19.8950704 37.8108949,19.5316901 37.6610895,19.5316901 C37.2116732,19.5316901 37.2416342,20.4401408 36.9420233,20.4098592 C36.4027237,20.3190141 35.9233463,19.1077465 35.9233463,17.8359155 C35.8933852,17.0485915 36.1031128,16.2612676 36.5225681,15.6556338 L36.5225681,15.6556338 Z"></path>
                            <path d="M16.5085603,0.635915493 C16.5085603,0.484507042 15.8194553,0.363380282 14.8607004,0.363380282 C13.3326848,0.363380282 13.5424125,1.63521127 12.37393,1.63521127 C11.1455253,1.63521127 11.4750973,0.302816901 9.91712062,0.302816901 C8.98832685,0.302816901 8.11945525,0.454225352 8.11945525,0.666197183 C8.11945525,0.938732394 9.22801556,0.817605634 9.22801556,1.60492958 C9.22801556,2.42253521 6.86108949,2.66478873 6.86108949,3.14929577 C6.86108949,3.30070423 7.04085603,3.3915493 7.28054475,3.3915493 C7.78988327,3.3915493 8.59883268,3.14929577 9.19805447,3.14929577 C9.52762646,3.14929577 9.82723735,3.20985915 9.82723735,3.51267606 C9.82723735,4.11830986 8.5688716,5.17816901 8.5688716,5.63239437 C8.5688716,5.78380282 8.68871595,5.81408451 8.80856031,5.81408451 C9.28793774,5.81408451 10.0669261,4.6028169 10.8159533,4.6028169 C12.044358,4.6028169 11.2354086,7.26760563 11.9245136,7.26760563 C12.6136187,7.26760563 12.3140078,4.63309859 13.3326848,4.63309859 C14.1416342,4.63309859 14.7708171,6.45 15.3101167,6.45 C15.4599222,6.45 15.5797665,6.32887324 15.5797665,6.17746479 C15.5797665,5.69295775 14.8906615,4.66338028 14.8906615,3.9971831 C14.8906615,3.60352113 15.1603113,3.3915493 15.5498054,3.3915493 C16.0891051,3.3915493 16.8081712,3.72464789 17.1976654,3.72464789 C17.3474708,3.72464789 17.4673152,3.66408451 17.4673152,3.51267606 C17.4673152,2.93732394 15.4,2.33169014 15.4,1.60492958 C15.3700389,0.969014085 16.5085603,0.969014085 16.5085603,0.635915493 L16.5085603,0.635915493 Z M21.9914397,3.02816901 C21.9914397,3.45211268 23.4595331,4.36056338 24.1486381,4.36056338 C24.5381323,4.36056338 24.6579767,3.81549296 24.6579767,3.24014085 C24.6579767,2.54366197 24.3583658,2.51338028 23.759144,2.51338028 C22.9801556,2.54366197 21.9914397,2.7556338 21.9914397,3.02816901 L21.9914397,3.02816901 Z M24.4182879,7.72183099 C24.4182879,6.29859155 20.6132296,3.72464789 20.5832685,2.63450704 C20.5832685,2.54366197 20.6431907,2.42253521 20.7330739,2.33169014 C21.3922179,1.63521127 24.088716,1.12042254 24.088716,0.545070423 C24.088716,0.242253521 23.5194553,0.242253521 23.2498054,0.242253521 C21.0626459,0.242253521 17.8867704,1.05985915 17.8867704,1.81690141 C17.8867704,2.63450704 20.7330739,4.57253521 20.7330739,5.5415493 C20.7330739,5.81408451 20.5832685,5.90492958 20.3136187,5.90492958 C19.5346304,5.90492958 17.7968872,4.93591549 16.9579767,4.93591549 C16.5984436,4.93591549 16.4486381,5.2084507 16.4486381,5.57183099 C16.4486381,6.69225352 17.7669261,8.84225352 17.7669261,9.47816901 C17.7669261,9.53873239 17.736965,9.62957746 17.6470817,9.62957746 C17.2276265,9.62957746 15.2501946,7.26760563 14.5311284,7.26760563 C14.2614786,7.26760563 14.2614786,7.63098592 14.2614786,8.14577465 L14.2614786,8.96338028 C14.2614786,9.5084507 14.2315175,9.8415493 13.9918288,9.8415493 C13.392607,9.8415493 13.0929961,8.11549296 12.5237354,8.11549296 C11.9245136,8.11549296 11.8046693,11.1739437 11.2054475,11.1739437 C10.5163424,11.1739437 11.1155642,7.78239437 10.4564202,7.78239437 C9.73735409,7.78239437 8.92840467,10.0232394 8.38910506,10.0232394 C8.20933852,10.0232394 8.14941634,9.8415493 8.14941634,9.65985915 C8.14941634,8.96338028 8.53891051,7.87323944 8.53891051,7.20704225 C8.53891051,6.87394366 8.44902724,6.69225352 8.17937743,6.69225352 C7.46031128,6.69225352 5.87237354,7.87323944 5.24319066,7.87323944 C5.15330739,7.87323944 5.03346304,7.81267606 5.03346304,7.72183099 C5.03346304,7.14647887 7.58015564,5.35985915 7.58015564,4.54225352 C7.58015564,3.75492958 4.07470817,4.26971831 4.07470817,3.3915493 C4.07470817,2.63450704 6.59143969,1.8471831 6.59143969,1.09014085 C6.59143969,0.393661972 3.62529183,0.0908450704 2.48677043,0.0908450704 C1.10856031,0.0908450704 0.359533074,0.242253521 0.359533074,0.666197183 C0.359533074,1.27183099 3.50544747,1.48380282 3.50544747,1.99859155 C3.50544747,2.51338028 0.269649805,3.90633803 0.269649805,4.72394366 C0.269649805,5.42042254 4.8536965,4.78450704 4.8536965,5.51126761 C4.8536965,6.32887324 0.868871595,9.78098592 0.868871595,10.9316901 C0.868871595,11.2042254 1.04863813,11.2950704 1.31828794,11.2950704 C2.54669261,11.2950704 5.692607,8.96338028 6.5614786,8.96338028 C6.86108949,8.96338028 6.89105058,9.32676056 6.89105058,9.65985915 C6.89105058,10.265493 6.68132296,11.2042254 6.68132296,11.9007042 C6.68132296,12.4457746 6.8311284,12.8091549 7.28054475,12.8091549 C8.14941634,12.8091549 8.92840467,11.3253521 9.52762646,11.3253521 C10.2766537,11.3253521 9.82723735,15.6859155 10.9657588,15.6859155 C11.9245136,15.6859155 12.3140078,10.9619718 12.9132296,10.9619718 C13.5124514,10.9619718 14.0217899,12.3246479 14.5610895,12.3246479 C15.2501946,12.3246479 14.9206226,9.93239437 15.6696498,9.93239437 C16.4785992,9.93239437 18.8155642,12.7788732 19.8642023,12.7788732 C20.1937743,12.7788732 20.3136187,12.506338 20.3136187,12.1732394 C20.3136187,10.9316901 18.5758755,8.08521127 18.5758755,7.17676056 C18.5758755,6.93450704 18.6357977,6.87394366 18.9054475,6.87394366 C19.8042802,6.87394366 22.4708171,8.14577465 23.7291829,8.14577465 C24.1785992,8.26690141 24.4182879,8.02464789 24.4182879,7.72183099 L24.4182879,7.72183099 Z M3.08599222,6.35915493 C3.08599222,6.84366197 1.31828794,8.41830986 0.689105058,8.41830986 C0.449416342,8.41830986 0.389494163,8.14577465 0.389494163,7.87323944 C0.389494163,7.38873239 0.59922179,6.7528169 0.868871595,6.54084507 C1.16848249,6.26830986 1.88754864,6.11690141 2.39688716,6.11690141 C2.72645914,6.08661972 3.08599222,6.1471831 3.08599222,6.35915493 L3.08599222,6.35915493 Z M20.2536965,8.78169014 C20.2536965,9.59929577 23.1898833,13.6570423 23.7291829,13.6570423 C24.2085603,13.6570423 24.5381323,12.8394366 24.5381323,12.1126761 C24.5381323,11.9309859 24.4782101,11.7492958 24.3883268,11.5978873 C23.9688716,10.9922535 21.0027237,8.63028169 20.3435798,8.63028169 C20.3136187,8.63028169 20.2536965,8.72112676 20.2536965,8.78169014 L20.2536965,8.78169014 Z"></path>
                            <path d="M57.7949416,1.63521127 C57.7949416,1.96830986 58.0645914,2.21056338 58.3941634,2.21056338 C58.7237354,2.21056338 58.9933852,1.93802817 58.9933852,1.63521127 C58.9933852,1.30211268 58.7237354,1.02957746 58.3941634,1.02957746 C58.0645914,1.02957746 57.7949416,1.30211268 57.7949416,1.63521127 L57.7949416,1.63521127 Z M53.9898833,6.84366197 C53.9898833,5.17816901 50.0050584,4.75422535 50.0050584,4.36056338 C50.0050584,4.05774648 52.222179,3.54295775 53.3607004,3.51267606 C51.5929961,1.2415493 49.1062257,1.48380282 49.1062257,1.09014085 C49.1062257,0.847887324 50.9638132,0.393661972 52.7015564,0.393661972 C54.1396887,0.393661972 55.5178988,0.726760563 55.5178988,1.8471831 C55.5178988,2.4528169 55.0385214,3.08873239 55.0385214,4.05774648 C55.0385214,4.57253521 55.3081712,5.02676056 55.9673152,5.02676056 C56.6863813,5.02676056 56.8661479,4.23943662 56.8661479,3.42183099 C56.8661479,2.72535211 56.7463035,2.21056338 56.7463035,1.87746479 C56.7463035,0.878169014 57.4054475,0.211971831 58.3642023,0.211971831 C59.1731518,0.211971831 59.3529183,0.575352113 60.5214008,0.575352113 C59.8922179,0.969014085 59.6525292,1.63521127 59.6525292,1.96830986 C59.6525292,2.96760563 60.2817121,3.63380282 60.2817121,5.66267606 C60.2817121,9.38732394 56.8361868,10.7197183 52.5817121,10.7197183 C51.4132296,10.7197183 50.1848249,10.6288732 48.9564202,10.4471831 C48.7766537,10.4169014 48.7167315,10.3866197 48.7167315,10.265493 C48.7167315,9.96267606 50.3645914,9.78098592 50.3645914,8.26690141 C50.3645914,7.66126761 50.1848249,7.11619718 50.1848249,6.90422535 C50.1848249,6.78309859 50.2747082,6.72253521 50.3645914,6.72253521 C50.7241245,6.72253521 51.4132296,8.08521127 52.7315175,8.08521127 C53.1210117,8.05492958 53.9898833,7.93380282 53.9898833,6.84366197 L53.9898833,6.84366197 Z M57.9447471,4.45140845 C57.9447471,6.54084507 56.4167315,8.14577465 53.6902724,8.6 C53.9898833,8.63028169 54.2894942,8.63028169 54.559144,8.63028169 C57.7649805,8.63028169 58.933463,7.17676056 58.933463,5.93521127 C58.933463,5.26901408 58.5439689,4.66338028 57.9447471,4.45140845 L57.9447471,4.45140845 Z"></path>
                            <path d="M56.3268482,34.9147887 C56.6863813,33.7338028 57.1657588,32.9161972 57.9447471,31.6443662 C57.1657588,31.2507042 55.1284047,30.4028169 55.1284047,29.0098592 C55.1284047,27.3746479 57.1357977,26.1028169 57.5552529,26.1028169 C57.7350195,26.1028169 57.7949416,26.2542254 57.7949416,26.5873239 C57.7949416,27.4352113 57.4054475,28.7978873 57.4054475,29.5549296 C57.4054475,30.2211268 57.8249027,30.8570423 58.2143969,30.8570423 C58.6038911,30.8570423 59.7124514,29.4338028 59.7124514,28.0408451 C59.7124514,25.5274648 57.5252918,24.7704225 56.8661479,24.7704225 C56.236965,24.7704225 55.0984436,25.8 52.4019455,25.8 C47.3684825,25.8 46.2299611,20.7732394 46.2299611,18.5626761 C46.2299611,18.471831 46.2599222,18.4415493 46.2898833,18.4415493 C46.4097276,18.4415493 46.8891051,19.0471831 48.4770428,19.0471831 C49.2859922,19.0471831 50.0350195,18.8352113 51.233463,18.8352113 C54.0198444,18.8352113 55.2782101,20.8035211 57.0159533,23.2866197 C58.0645914,23.9528169 60.581323,25.0126761 60.581323,28.0105634 C60.581323,30.6450704 57.7949416,32.1288732 57.1357977,34.9450704 C58.2143969,34.8239437 58.8435798,32.8859155 59.9521401,32.8859155 C60.5214008,32.8859155 60.7610895,33.3401408 60.7610895,34.0366197 C60.7610895,35.0661972 60.1618677,36.6408451 59.0533074,37.6098592 C59.0832685,37.5190141 59.0832685,37.3978873 59.0832685,37.2464789 C59.0832685,36.5802817 58.8136187,35.6415493 58.0645914,35.6415493 C56.8961089,35.6415493 56.5365759,36.9133803 55.8774319,37.9732394 C55.1883268,35.5507042 54.2894942,33.4007042 52.6416342,32.0683099 C50.9937743,30.7359155 48.1175097,31.4626761 48.1175097,29.0098592 C48.1175097,28.343662 48.536965,27.4049296 48.536965,26.6478873 C48.536965,26.3753521 48.4770428,26.1633803 48.3571984,25.9514085 C50.6042802,26.7992958 49.7953307,28.3133803 51.2035019,29.8577465 C52.0723735,30.8570423 54.4392996,31.7957746 55.8175097,35.8838028 C55.8474708,35.7626761 55.8774319,35.4598592 55.8774319,35.2478873 C55.8774319,31.765493 51.2933852,28.3133803 50.9038911,26.9204225 C53.570428,27.2232394 54.0198444,27.8894366 55.3081712,31.4323944 C55.4879377,32.1894366 56.3268482,34.006338 56.3268482,34.9147887 L56.3268482,34.9147887 Z M55.7276265,23.4380282 C55.7276265,22.9535211 54.4992218,22.8929577 54.3793774,21.5 C54.3494163,21.2880282 54.2894942,20.9246479 54.0198444,20.9246479 C53.6003891,20.9246479 53.9299611,22.2267606 53.4505837,22.2267606 C52.3719844,22.2267606 52.0124514,20.1070423 51.6229572,20.1070423 C51.5330739,20.1070423 51.4132296,20.1676056 51.4132296,20.4704225 C51.4132296,20.7429577 51.4731518,20.8943662 51.4731518,21.1971831 C51.4731518,21.5 51.4132296,21.7119718 51.1136187,21.7119718 C50.4844358,21.7119718 49.9151751,20.228169 49.3758755,20.228169 C49.2560311,20.228169 49.1361868,20.2887324 49.1361868,20.4098592 C49.1361868,20.6823944 49.6155642,21.2274648 49.6155642,21.4697183 C49.6155642,22.0450704 48.0875486,21.7422535 48.0875486,22.1964789 C48.0875486,22.4084507 48.2972763,22.4690141 48.5669261,22.4690141 C49.0463035,22.4690141 49.8252918,22.2570423 50.214786,22.2570423 C50.4544747,22.2570423 50.8140078,22.3176056 50.8140078,22.6204225 C50.8140078,22.9535211 49.9750973,23.3774648 49.9750973,23.6802817 C49.9750973,23.8316901 50.1249027,23.8922535 50.2447471,23.8922535 C50.87393,23.8922535 51.9824903,22.771831 52.7914397,22.771831 C52.9412451,22.771831 53.2708171,22.8323944 53.2708171,23.0443662 C53.2708171,23.3471831 52.4918288,23.8922535 52.4918288,24.3464789 C52.4918288,24.4676056 52.551751,24.6190141 52.7015564,24.6190141 C53.1210117,24.6190141 53.6902724,23.4985915 54.4692607,23.4985915 C54.7688716,23.4985915 55.2182879,23.6197183 55.4579767,23.6197183 C55.6377432,23.65 55.7276265,23.5288732 55.7276265,23.4380282 L55.7276265,23.4380282 Z"></path>
                            <path d="M38.3202335,9.29647887 C38.7097276,9.29647887 38.7696498,10.2049296 38.829572,10.75 C38.8894942,11.0225352 38.9194553,11.0528169 39.0392996,11.0528169 C39.3089494,11.0528169 39.7583658,9.96267606 40.0579767,9.96267606 C40.507393,9.96267606 41.7058366,11.2042254 43.6832685,11.2042254 C46.4996109,11.2042254 49.1661479,9.2056338 49.1661479,5.66267606 C49.1661479,2.24084507 46.7692607,0.242253521 43.4735409,0.242253521 C41.9155642,0.242253521 40.7470817,1.02957746 40.1478599,1.02957746 C39.7883268,1.05985915 39.2190661,0.121126761 38.9494163,0.121126761 C38.829572,0.121126761 38.7097276,0.363380282 38.7097276,0.757042254 C38.7097276,1.02957746 38.7097276,1.8471831 38.4400778,1.8471831 C37.8708171,1.8471831 35.7136187,0.211971831 35.7136187,0.817605634 C35.7136187,1.36267606 37.151751,3.02816901 37.151751,3.45211268 C37.151751,3.87605634 35.7136187,4.26971831 35.7136187,4.57253521 C35.7136187,5.08732394 37.2416342,5.17816901 37.2416342,5.8443662 C37.2416342,6.51056338 35.6536965,7.02535211 35.6536965,7.50985915 C35.6536965,7.90352113 37.2416342,7.63098592 37.2416342,8.11549296 C37.2416342,8.6 36.0731518,10.265493 36.0731518,10.75 C36.0731518,10.8711268 36.1031128,10.8711268 36.1929961,10.8711268 C36.6424125,10.8408451 37.9906615,9.29647887 38.3202335,9.29647887 L38.3202335,9.29647887 Z M38.9793774,5.42042254 C38.9793774,5.14788732 38.0805447,4.66338028 38.0805447,4.39084507 C38.0805447,4.33028169 38.1404669,4.33028169 38.2003891,4.33028169 C38.4700389,4.33028169 38.8894942,4.42112676 39.2490272,4.42112676 C39.5486381,4.42112676 39.6085603,3.08873239 39.8182879,3.08873239 C39.9680934,3.08873239 40.2677043,4.33028169 40.507393,4.33028169 C40.8070039,4.33028169 41.3762646,3.96690141 41.6159533,3.96690141 C41.6758755,3.96690141 41.7058366,3.9971831 41.7058366,4.02746479 C41.7058366,4.17887324 41.1066148,4.81478873 41.1066148,5.02676056 C41.1066148,5.23873239 42.4249027,5.51126761 42.4249027,5.69295775 C42.4249027,5.93521127 41.0766537,5.90492958 41.0766537,6.11690141 C41.0766537,6.26830986 41.5560311,6.93450704 41.5560311,7.14647887 C41.5560311,7.20704225 41.52607,7.20704225 41.4961089,7.20704225 C41.3163424,7.20704225 40.5972763,6.87394366 40.3875486,6.87394366 C40.1178988,6.87394366 39.7284047,7.84295775 39.488716,7.84295775 C39.4287938,7.84295775 39.3688716,7.75211268 39.3688716,7.63098592 L39.3089494,6.69225352 C39.3089494,6.60140845 39.2490272,6.51056338 39.159144,6.51056338 C38.8894942,6.51056338 38.3501946,6.48028169 38.170428,6.48028169 C38.0505837,6.48028169 38.0206226,6.45 38.0206226,6.41971831 C38.0505837,6.26830986 38.9793774,5.60211268 38.9793774,5.42042254 L38.9793774,5.42042254 Z M43.533463,9.90211268 C41.8856031,9.90211268 40.8070039,9.08450704 40.8070039,8.66056338 C40.8070039,8.44859155 40.9568093,8.2971831 41.1365759,8.2971831 C41.6459144,8.2971831 42.7844358,9.08450704 43.1439689,9.08450704 C43.2338521,9.08450704 43.2937743,9.02394366 43.2937743,8.9028169 C43.2937743,8.47887324 42.9042802,7.78239437 42.9042802,7.41901408 C42.9042802,7.32816901 42.9642023,7.26760563 43.1140078,7.26760563 C43.7431907,7.26760563 44.6719844,7.54014085 45.181323,7.54014085 C45.3311284,7.54014085 45.3910506,7.44929577 45.3910506,7.3584507 C45.3910506,6.84366197 43.863035,5.81408451 43.863035,5.51126761 C43.863035,5.23873239 45.7505837,4.81478873 45.7505837,4.36056338 C45.7505837,3.87605634 43.17393,4.20915493 43.17393,3.75492958 C43.17393,3.42183099 43.6533074,2.84647887 43.6533074,2.60422535 C43.6533074,2.48309859 43.5634241,2.4528169 43.3836576,2.4528169 C43.17393,2.4528169 42.0354086,2.90704225 41.5859922,2.90704225 C41.3463035,2.90704225 41.0766537,2.84647887 41.0766537,2.54366197 C41.0766537,1.99859155 41.9754864,1.42323944 43.4136187,1.42323944 C45.7206226,1.42323944 47.0988327,3.02816901 47.0988327,5.72323944 C47.1587549,9.05422535 44.8217899,9.90211268 43.533463,9.90211268 L43.533463,9.90211268 Z"></path>
                            <path d="M27.7140078,50.7823944 C27.7140078,50.9943662 27.6540856,51.2366197 27.444358,51.4788732 C27.1747082,50.9943662 26.455642,50.7823944 26.12607,50.7823944 C23.7291829,50.7823944 24.6280156,54.2950704 22.0513619,54.2950704 C20.9727626,54.2950704 20.8828794,54.143662 20.4933852,54.143662 C20.3435798,54.143662 20.2237354,54.2042254 20.2237354,54.3556338 C20.2237354,54.9612676 21.092607,56.4753521 23.4894942,56.4753521 C25.8863813,56.4753521 28.2233463,54.9915493 28.2233463,53.1443662 C28.2233463,52.8415493 28.1634241,52.5084507 28.0136187,52.1753521 C28.1035019,52.0239437 28.3431907,51.9330986 28.5529183,51.9330986 C28.9124514,51.9330986 29.122179,52.3570423 29.4817121,52.3570423 C29.8412451,52.3570423 30.140856,52.084507 30.140856,51.6908451 C30.140856,51.3880282 29.9910506,51.1760563 29.6914397,51.0246479 C29.8712062,50.8732394 30.0210117,50.6612676 30.0210117,50.3887324 C30.0210117,49.9950704 29.7513619,49.6014085 29.2719844,49.6014085 C29.0622568,49.6014085 28.9124514,49.6619718 28.7626459,49.843662 C28.7027237,49.4197183 28.4929961,49.0260563 28.0435798,49.0260563 C27.6840467,49.0260563 27.444358,49.2985915 27.444358,49.6922535 C27.4743191,50.0859155 27.7140078,50.3887324 27.7140078,50.7823944 L27.7140078,50.7823944 Z"></path>
                            <path d="M21.422179,51.6908451 C20.7330739,51.6908451 19.6544747,50.9338028 19.6544747,50.5098592 C19.6544747,50.1464789 19.9840467,49.9647887 20.2237354,49.9647887 C20.8229572,49.9647887 21.8715953,50.6915493 21.8715953,51.2971831 C21.9015564,51.4788732 21.7817121,51.6908451 21.422179,51.6908451 L21.422179,51.6908451 Z M14.9206226,46.3915493 C16.7782101,46.8760563 17.736965,47.8753521 17.9167315,49.0866197 C18.0964981,50.2373239 18.3361868,51.1760563 18.7856031,51.6605634 C19.3848249,52.3267606 20.5233463,52.9021127 21.5120623,52.9021127 C22.3509728,52.9021127 23.0400778,52.6295775 23.0400778,51.8422535 C23.0400778,50.9943662 21.9015564,49.0866197 20.2237354,49.0866197 C20.07393,49.0866197 19.8642023,49.1169014 19.6245136,49.1169014 C19.414786,49.1169014 19.1151751,49.056338 18.9354086,48.9049296 C18.5758755,48.571831 18.4560311,46.815493 17.736965,45.7253521 C16.9579767,44.5443662 16.1190661,44.2112676 14.9805447,44.2112676 C14.1715953,44.2112676 13.2428016,44.665493 13.2428016,45.3316901 C13.2128405,45.7253521 13.4225681,45.9978873 14.9206226,46.3915493 L14.9206226,46.3915493 Z"></path>
                            <path d="M26.6354086,43.5147887 C26.6354086,42.4549296 24.448249,42.4246479 24.448249,40.8197183 C24.448249,40.4260563 24.7178988,39.7295775 25.2272374,39.0028169 C25.436965,40.2443662 25.9163424,40.8802817 26.9949416,41.2739437 C29.0622568,42.0612676 29.3618677,43.2422535 29.3618677,44.4838028 C29.3618677,46.6035211 27.8937743,49.2683099 24.088716,49.2683099 C21.0626459,49.2683099 18.8754864,46.5429577 18.8754864,44.2112676 C18.8754864,43.5753521 19.0252918,42.8788732 19.4447471,42.8788732 C19.8042802,42.8788732 19.9241245,43.1514085 20.1937743,43.4542254 C21.2424125,44.5140845 22.3809339,44.7866197 24.0587549,44.7866197 C25.5568093,44.756338 26.6354086,44.1507042 26.6354086,43.5147887 L26.6354086,43.5147887 Z M26.7252918,45.2105634 C25.9163424,45.5739437 25.6167315,45.5133803 25.6167315,46.3309859 C25.6167315,46.6338028 25.5568093,47.0274648 25.5568093,47.2394366 C25.5568093,47.5119718 25.6167315,47.693662 25.9163424,47.693662 C26.7552529,47.693662 28.1035019,46.2401408 28.1035019,45.0288732 C28.1035019,44.6957746 27.9237354,44.5443662 27.7140078,44.5443662 C27.5042802,44.5746479 27.2945525,44.9380282 26.7252918,45.2105634 L26.7252918,45.2105634 Z M19.2949416,33.2795775 C19.2949416,31.765493 22.8603113,30.978169 22.8603113,29.1007042 C22.8603113,28.7978873 22.7404669,28.2528169 22.5307393,27.8591549 C23.759144,28.5556338 24.6879377,29.706338 24.6879377,30.6450704 C24.6879377,32.2802817 23.0101167,33.0373239 23.0101167,34.0366197 C23.0101167,35.2176056 24.8077821,35.3992958 24.8077821,36.8830986 C24.8077821,38.0943662 23.1,39.4873239 23.1,41.0316901 C23.1,42.2429577 23.9389105,43.2422535 25.2272374,43.393662 C24.8077821,43.484507 24.4182879,43.5450704 24.0287938,43.5450704 C21.6618677,43.5450704 19.2350195,41.5767606 19.2350195,39.2450704 C19.2350195,38.0943662 19.7143969,37.0647887 20.4634241,36.3380282 C21.1225681,36.9133803 21.7817121,37.2767606 22.2011673,37.2767606 C22.5607004,37.2767606 22.7404669,37.0950704 22.7404669,36.7922535 C22.7105058,35.9443662 19.2949416,35.1570423 19.2949416,33.2795775 L19.2949416,33.2795775 Z"></path>
                            <path d="M5.72256809,44.9380282 C5.81245136,45.7556338 6.5614786,46.3612676 7.40038911,46.2704225 C7.7,46.2401408 7.99961089,46.1492958 8.17937743,46.028169 C8.35914397,46.7852113 8.98832685,47.2697183 9.82723735,47.1485915 C10.6961089,47.0274648 11.2653696,46.3612676 11.1754864,45.4830986 C11.1455253,45.2408451 11.1155642,45.1197183 11.0256809,44.9380282 C11.0256809,44.9380282 11.1455253,44.9380282 11.2354086,44.9077465 C12.0743191,44.756338 12.6435798,44.0598592 12.5836576,43.2422535 C12.4937743,42.3943662 11.7447471,41.7584507 10.9357977,41.8492958 C10.6361868,41.8795775 10.3365759,42.0007042 10.1568093,42.1823944 C9.94708171,41.4859155 9.28793774,40.85 8.38910506,41.0014085 C7.58015564,41.1225352 7.04085603,41.8492958 7.1307393,42.7274648 C7.1307393,42.8788732 7.19066148,43.0302817 7.25058366,43.2119718 C7.25058366,43.2119718 7.10077821,43.2422535 7.01089494,43.2422535 C6.35175097,43.3330986 5.60272374,44.0295775 5.72256809,44.9380282 L5.72256809,44.9380282 Z M10.0968872,44.0295775 C10.1568093,44.5140845 9.79727626,44.9683099 9.31789883,45.0288732 C8.8385214,45.0894366 8.38910506,44.7260563 8.32918288,44.2415493 C8.2692607,43.7570423 8.62879377,43.3028169 9.10817121,43.2422535 C9.58754864,43.1816901 10.036965,43.5147887 10.0968872,44.0295775 L10.0968872,44.0295775 Z"></path>
                        </g>
                    </g>
                </g>
            </g>
        </g>
    </g>
</svg>