<?xml version="1.0" encoding="UTF-8" standalone="no"?>
<svg width="131px" height="40px" viewBox="0 0 131 40" version="1.1" xmlns="http://www.w3.org/2000/svg" xmlns:xlink="http://www.w3.org/1999/xlink">
    <!-- Generator: Sketch 39.1 (31720) - http://www.bohemiancoding.com/sketch -->
    <title>logo-wip-4</title>
    <desc>Created with Sketch.</desc>
    <defs></defs>
    <g id="Page-1" stroke="none" stroke-width="1" fill="none" fill-rule="evenodd">
        <g id="Desktop-Copy-11" transform="translate(-182.000000, -2569.000000)" fill="#FFFFFF">
            <g id="logo-wip-4" transform="translate(182.000000, 2569.000000)">
                <g id="Layer_1">
                    <g id="Group">
                        <path d="M25.6935767,6.80182371 C23.9101006,0.860182371 16.9755474,-1.11744681 10.7747876,0.787963526 C4.57558818,2.6931307 1.44874423,8.76145897 3.23498069,14.7032219 C4.37419701,18.4995745 8.39613949,21.5634043 12.6566789,22.5259574 L11.2507813,32.0987234 L3.40708732,21.6700304 L0.00960148605,21.6700304 L0.00960148605,38.6094833 L3.64328388,38.6094833 L3.64328388,27.8403647 L11.7924251,39.9709422 L16.1620614,38.5865046 L16.6066103,22.7635258 C17.6675745,22.6409726 18.6943334,22.3697264 19.6361191,21.8920365 C26.3894444,18.4682067 27.4764526,12.7444377 25.6935767,6.80182371 L25.6935767,6.80182371 Z M15.7812425,19.367538 C11.2225769,19.367538 6.5806185,15.7058967 6.5806185,11.3608511 C6.5806185,7.01386018 9.46334467,2.94212766 14.0209301,2.94212766 C18.5789955,2.94212766 22.1401867,6.3643769 23.0871333,11.3608511 C23.8949783,15.6289362 20.339428,19.367538 15.7812425,19.367538 L15.7812425,19.367538 Z" id="Shape"></path>
                        <path d="M19.9011202,11.2177508 C18.8186726,14.2280851 16.171783,16.4204255 13.4071551,16.4204255 C10.6408469,16.4204255 9.07796502,14.0928875 9.88977067,11.2177508 C10.6684512,8.45507599 12.2076894,6.67039514 14.8946653,6.01617021 C18.2764287,5.19671733 20.8721904,8.51927052 19.9011202,11.2177508" id="Shape"></path>
                        <g transform="translate(34.085275, 15.319149)" id="Shape">
                            <g transform="translate(42.966650, 17.872340)">
                                <path d="M0.0207632136,4.97799392 L0.308687776,4.56765957 C0.721791714,4.8806079 1.17738223,5.06018237 1.62745189,5.06018237 C2.08544277,5.06018237 2.41609395,4.82139818 2.41609395,4.44802432 L2.41609395,4.43258359 C2.41609395,4.0449848 1.96614431,3.89592705 1.4647067,3.75392097 C0.86785432,3.58237082 0.204631671,3.37300912 0.204631671,2.66370821 L0.204631671,2.6487538 C0.204631671,1.98480243 0.750956228,1.54480243 1.50191246,1.54480243 C1.96614431,1.54480243 2.48258424,1.70844985 2.8719245,1.9699696 L2.61520476,2.40316109 C2.26151002,2.17118541 1.85632731,2.02917933 1.48847037,2.02917933 C1.03840072,2.02917933 0.750836209,2.26796353 0.750836209,2.58930091 L0.750836209,2.60425532 C0.750836209,2.97009119 1.22226917,3.11161094 1.7309079,3.26820669 C2.31983905,3.44778116 2.95377716,3.67963526 2.95377716,4.37325228 L2.95377716,4.38808511 C2.95377716,5.12 2.35680477,5.54516717 1.59804733,5.54516717 C1.05208283,5.54516717 0.449469566,5.32899696 0.0207632136,4.97799392 L0.0207632136,4.97799392 Z"></path>
                                <path d="M3.39244506,0.133009119 L4.04042535,0.133009119 L4.04042535,0.767537994 L3.39244506,0.767537994 L3.39244506,0.133009119 L3.39244506,0.133009119 Z M3.42785054,1.61094225 L3.99505833,1.61094225 L3.99505833,5.47039514 L3.42785054,5.47039514 L3.42785054,1.61094225 L3.42785054,1.61094225 Z"></path>
                                <path d="M4.6881656,1.61094225 L5.25513335,1.61094225 L5.25513335,2.26139818 C5.50621221,1.88012158 5.84430454,1.52899696 6.48448362,1.52899696 C7.10437956,1.52899696 7.50152103,1.86528875 7.70747291,2.29848024 C7.9813553,1.87270517 8.38653801,1.52899696 9.05000069,1.52899696 C9.92637633,1.52899696 10.4641796,2.12680851 10.4641796,3.08194529 L10.4641796,5.47051672 L9.8970918,5.47051672 L9.8970918,3.21702128 C9.8970918,2.46930091 9.52911485,2.05215805 8.90873883,2.05215805 C8.33529008,2.05215805 7.86385711,2.48425532 7.86385711,3.24668693 L7.86385711,5.47039514 L7.29628927,5.47039514 L7.29628927,3.20158055 C7.29628927,2.47732523 6.92051111,2.05215805 6.31621758,2.05215805 C5.71132396,2.05215805 5.25501333,2.56 5.25501333,3.26832827 L5.25501333,5.47039514 L4.68804558,5.47039514 L4.68804558,1.61094225 L4.6881656,1.61094225 Z"></path>
                                <path d="M11.0594717,1.61094225 L11.6265595,1.61094225 L11.6265595,2.38832827 C11.9360874,1.92559271 12.3837567,1.52899696 13.0843051,1.52899696 C13.9984866,1.52899696 14.9043868,2.26139818 14.9043868,3.53009119 L14.9043868,3.54480243 C14.9043868,4.80656535 14.0065278,5.55319149 13.0843051,5.55319149 C12.3781158,5.55319149 11.9203649,5.16462006 11.6265595,4.73130699 L11.6265595,6.66504559 L11.0594717,6.66504559 L11.0594717,1.61094225 L11.0594717,1.61094225 Z M14.3230168,3.55161094 L14.3230168,3.53665653 C14.3230168,2.62711246 13.7030009,2.04413374 12.980489,2.04413374 C12.2739397,2.04413374 11.6033959,2.64887538 11.6033959,3.53009119 L11.6033959,3.54480243 C11.6033959,4.44072948 12.2739397,5.03732523 12.980489,5.03732523 C13.7181232,5.03720365 14.3230168,4.48547112 14.3230168,3.55161094 L14.3230168,3.55161094 Z"></path>
                                <polygon points="15.3700589 0.0215197568 15.9376267 0.0215197568 15.9376267 5.47039514 15.3700589 5.47039514"></polygon>
                                <path d="M16.3933372,3.55161094 L16.3933372,3.53665653 C16.3933372,2.42492401 17.1662569,1.52887538 18.2189398,1.52887538 C19.3480746,1.52887538 19.9956948,2.43963526 19.9956948,3.56753799 C19.9956948,3.64218845 19.9956948,3.68656535 19.9877736,3.75392097 L16.966666,3.75392097 C17.0488787,4.58930091 17.6300086,5.06018237 18.3090737,5.06018237 C18.8316346,5.06018237 19.1997316,4.84303951 19.5084194,4.51537994 L19.8628342,4.836231 C19.4793749,5.26930091 19.0156231,5.56 18.2932313,5.56 C17.2463093,5.55987842 16.3933372,4.74601824 16.3933372,3.55161094 L16.3933372,3.55161094 Z M19.4208058,3.3287538 C19.3615166,2.62711246 18.9642551,2.01446809 18.2056177,2.01446809 C17.5422751,2.01446809 17.0408375,2.57458967 16.966666,3.3287538 L19.4208058,3.3287538 L19.4208058,3.3287538 Z"></path>
                                <path d="M20.3595911,1.61094225 L20.927159,1.61094225 L20.927159,2.61920973 C21.2066822,1.9768997 21.7587677,1.51416413 22.4804394,1.54480243 L22.4804394,2.1643769 L22.4355524,2.1643769 C21.6038237,2.1643769 20.927159,2.76838906 20.927159,3.93349544 L20.927159,5.47051672 L20.3595911,5.47051672 L20.3595911,1.61094225 L20.3595911,1.61094225 Z"></path>
                                <path d="M27.3024257,4.73118541 C26.8305126,5.24656535 26.2847882,5.54516717 25.6153246,5.54516717 C24.6859007,5.54516717 23.9933935,4.95513678 23.9933935,4.08206687 L23.9933935,4.06735562 C23.9933935,3.37300912 24.4512644,2.87270517 25.2400265,2.56 C24.8856116,2.14176292 24.7229864,1.82030395 24.7229864,1.40984802 L24.7229864,1.39513678 C24.7229864,0.708449848 25.269311,0.156109422 26.0871176,0.156109422 C26.8090293,0.156109422 27.3397514,0.685471125 27.3397514,1.33592705 L27.3397514,1.3506383 C27.3397514,2.01458967 26.8755196,2.43975684 26.122163,2.70820669 L27.3023057,3.92547112 C27.5314211,3.58990881 27.7367729,3.19416413 27.9206414,2.76121581 L28.3999955,2.98528875 C28.1711201,3.47756839 27.9366038,3.92547112 27.6563605,4.29933131 L28.5548195,5.2318541 L28.1125511,5.57483283 L27.3024257,4.73118541 L27.3024257,4.73118541 Z M26.9480108,4.36534954 L25.5703176,2.92522796 C24.8856116,3.1787234 24.5823247,3.60449848 24.5823247,4.0449848 L24.5823247,4.05981763 C24.5823247,4.61896657 25.0247131,5.04510638 25.6586513,5.04510638 C26.1459267,5.04522796 26.5722327,4.78346505 26.9480108,4.36534954 L26.9480108,4.36534954 Z M26.7933069,1.38006079 L26.7933069,1.36522796 C26.7933069,0.947112462 26.4846191,0.640972644 26.063714,0.640972644 C25.6000822,0.640972644 25.2827531,0.969848024 25.2827531,1.3950152 L25.2827531,1.40972644 C25.2827531,1.71635258 25.4082925,1.94711246 25.7997931,2.37349544 C26.4552145,2.14942249 26.7933069,1.82808511 26.7933069,1.38006079 L26.7933069,1.38006079 Z"></path>
                                <path d="M30.3741811,0.0215197568 L30.941869,0.0215197568 L30.941869,2.28303951 C31.1922277,1.86516717 31.5893692,1.52899696 32.2446706,1.52899696 C33.1668933,1.52899696 33.7046966,2.15647416 33.7046966,3.07392097 L33.7046966,5.47051672 L33.1370087,5.47051672 L33.1370087,3.21702128 C33.1370087,2.50018237 32.7539094,2.05215805 32.0827655,2.05215805 C31.426744,2.05215805 30.941869,2.53714286 30.941869,3.26139818 L30.941869,5.47039514 L30.3741811,5.47039514 L30.3741811,0.0215197568 L30.3741811,0.0215197568 Z"></path>
                                <path d="M33.9945414,4.35051672 L33.9945414,4.33580547 C33.9945414,3.52194529 34.6576441,3.0899696 35.6225934,3.0899696 C36.1075885,3.0899696 36.4540821,3.15659574 36.7945748,3.25337386 L36.7945748,3.11951368 C36.7945748,2.42492401 36.3736697,2.0668693 35.6597992,2.0668693 C35.2097295,2.0668693 34.8553147,2.18589666 34.5030601,2.35075988 L34.3332338,1.88012158 C34.7535389,1.68680851 35.1647225,1.55963526 35.7182482,1.55963526 C36.2566515,1.55963526 36.6689153,1.70151976 36.9491587,1.98480243 C37.2073187,2.24632219 37.338619,2.61920973 37.338619,3.11173252 L37.338619,5.47039514 L36.7945748,5.47039514 L36.7945748,4.88851064 C36.5282536,5.23975684 36.0863452,5.55306991 35.4149613,5.55306991 C34.709132,5.55306991 33.9945414,5.14285714 33.9945414,4.35051672 L33.9945414,4.35051672 Z M36.8008158,4.0525228 L36.8008158,3.67975684 C36.5205724,3.59708207 36.1447942,3.51513678 35.6811625,3.51513678 C34.9666919,3.51513678 34.5678702,3.82869301 34.5678702,4.31416413 L34.5678702,4.32899696 C34.5678702,4.81337386 35.0101386,5.09714286 35.5264585,5.09714286 C36.2267669,5.09714286 36.8008158,4.66443769 36.8008158,4.0525228 L36.8008158,4.0525228 Z"></path>
                                <path d="M37.9156683,1.61094225 L38.4834762,1.61094225 L38.4834762,2.38832827 C38.792164,1.92559271 39.2423536,1.52899696 39.942662,1.52899696 C40.8568435,1.52899696 41.7627437,2.26139818 41.7627437,3.53009119 L41.7627437,3.54480243 C41.7627437,4.80656535 40.8624844,5.55319149 39.942662,5.55319149 C39.2344324,5.55319149 38.7787219,5.16462006 38.4834762,4.73130699 L38.4834762,6.66504559 L37.9156683,6.66504559 L37.9156683,1.61094225 L37.9156683,1.61094225 Z M41.1799335,3.55161094 L41.1799335,3.53665653 C41.1799335,2.62711246 40.5617178,2.04413374 39.8394461,2.04413374 C39.1309764,2.04413374 38.4621129,2.64887538 38.4621129,3.53009119 L38.4621129,3.54480243 C38.4621129,4.44072948 39.1308564,5.03732523 39.8394461,5.03732523 C40.5751599,5.03720365 41.1799335,4.48547112 41.1799335,3.55161094 L41.1799335,3.55161094 Z"></path>
                                <path d="M42.1757277,1.61094225 L42.7432955,1.61094225 L42.7432955,2.38832827 C43.0522233,1.92559271 43.502293,1.52899696 44.2027214,1.52899696 C45.1169029,1.52899696 46.0226831,2.26139818 46.0226831,3.53009119 L46.0226831,3.54480243 C46.0226831,4.80656535 45.1225437,5.55319149 44.2027214,5.55319149 C43.4944918,5.55319149 43.0386612,5.16462006 42.7432955,4.73130699 L42.7432955,6.66504559 L42.1757277,6.66504559 L42.1757277,1.61094225 L42.1757277,1.61094225 Z M45.4399929,3.55161094 L45.4399929,3.53665653 C45.4399929,2.62711246 44.8211771,2.04413374 44.0992654,2.04413374 C43.3910357,2.04413374 42.7214521,2.64887538 42.7214521,3.53009119 L42.7214521,3.54480243 C42.7214521,4.44072948 43.3910357,5.03732523 44.0992654,5.03732523 C44.8350993,5.03720365 45.4399929,4.48547112 45.4399929,3.55161094 L45.4399929,3.55161094 Z"></path>
                                <path d="M46.4513894,0.133009119 L47.0988896,0.133009119 L47.0988896,0.767537994 L46.4513894,0.767537994 L46.4513894,0.133009119 L46.4513894,0.133009119 Z M46.4885952,1.61094225 L47.056163,1.61094225 L47.056163,5.47039514 L46.4885952,5.47039514 L46.4885952,1.61094225 L46.4885952,1.61094225 Z"></path>
                                <path d="M47.5103133,3.55161094 L47.5103133,3.53665653 C47.5103133,2.42492401 48.2827529,1.52887538 49.3375961,1.52887538 C50.4644505,1.52887538 51.1126708,2.43963526 51.1126708,3.56753799 C51.1126708,3.64218845 51.1126708,3.68656535 51.1064299,3.75392097 L48.0853223,3.75392097 C48.1651347,4.58930091 48.7484249,5.06018237 49.4254497,5.06018237 C49.9501709,5.06018237 50.3176678,4.84303951 50.6270757,4.51537994 L50.9814905,4.836231 C50.5976711,5.26930091 50.1341594,5.56 49.4118876,5.56 C48.3648456,5.55987842 47.5103133,4.74601824 47.5103133,3.55161094 L47.5103133,3.55161094 Z M50.5391021,3.3287538 C50.4800529,2.62711246 50.0813512,2.01446809 49.3217537,2.01446809 C48.6606913,2.01446809 48.1576935,2.57458967 48.0852023,3.3287538 L50.5391021,3.3287538 L50.5391021,3.3287538 Z"></path>
                                <path d="M51.4765672,1.61094225 L52.043775,1.61094225 L52.043775,2.61920973 C52.3237783,1.9768997 52.877304,1.51416413 53.5992157,1.54480243 L53.5992157,2.1643769 L53.5543288,2.1643769 C52.7211598,2.1643769 52.043775,2.76838906 52.043775,3.93349544 L52.043775,5.47051672 L51.4765672,5.47051672 L51.4765672,1.61094225 L51.4765672,1.61094225 Z"></path>
                            </g>
                            <polygon points="8.83432731 0.301641337 11.0041431 0.301641337 11.0041431 12.9993921 9.1572973 12.9993921 2.23570603 3.96620061 2.23570603 12.9993921 0.0662502537 12.9993921 0.0662502537 0.301641337 2.1095665 0.301641337 8.83432731 9.08182371"></polygon>
                            <path d="M19.422126,2.13398176 C16.9293402,2.13398176 15.1914712,4.14808511 15.1914712,6.63294833 C15.1914712,9.11829787 16.966546,11.1677812 19.4587317,11.1677812 C21.9499573,11.1677812 23.6893865,9.15428571 23.6893865,6.67015198 C23.6893865,4.18395137 21.9149118,2.13398176 19.422126,2.13398176 M19.422126,13.2171429 C15.5672494,13.2171429 12.8781132,10.2615198 12.8781132,6.6700304 C12.8781132,3.07720365 15.6022948,0.0840121581 19.4587317,0.0840121581 C23.3142084,0.0840121581 26.0027445,3.04194529 26.0027445,6.63282675 C26.0027445,10.2250456 23.2788029,13.2171429 19.422126,13.2171429"></path>
                            <polygon points="35.9211996 0.301641337 38.3068088 0.301641337 33.0875611 13.0894833 31.1516614 13.0894833 25.9330137 0.301641337 28.3714311 0.301641337 32.1541766 10.0615198"></polygon>
                            <path d="M43.1477581,2.87781155 L40.995825,7.95683891 L45.3160137,7.95683891 L43.1477581,2.87781155 L43.1477581,2.87781155 Z M49.7271764,12.9993921 L47.3958156,12.9993921 L46.1232586,9.93446809 L40.18798,9.93446809 L38.8962201,12.9993921 L36.6373505,12.9993921 L42.1615655,0.21118541 L44.2046417,0.21118541 L49.7271764,12.9993921 L49.7271764,12.9993921 Z"></path>
                            <path d="M59.1894409,9.26297872 C59.1894409,8.17446809 58.3467905,7.53957447 56.6072413,7.53957447 L53.11002,7.53957447 L53.11002,11.0228571 L56.7687863,11.0228571 C58.2752594,11.0229787 59.1894409,10.4233435 59.1894409,9.26297872 M58.4891325,3.91161094 C58.4891325,2.87781155 57.7008505,2.27878419 56.2859515,2.27878419 L53.11014,2.27878419 L53.11014,5.6543465 L56.1229663,5.6543465 C57.5393055,5.6543465 58.4891325,5.09240122 58.4891325,3.91161094 M60.695554,3.54966565 C60.695554,5.10893617 59.8353809,5.9068693 58.9015163,6.39696049 C60.3742643,6.90480243 61.3959824,7.75854103 61.3959824,9.49908815 C61.3959824,11.7844377 59.5480564,12.9993921 56.7512635,12.9993921 L50.9409243,12.9993921 L50.9409243,0.301641337 L56.5724359,0.301641337 C59.1000271,0.301641337 60.695554,1.55379939 60.695554,3.54966565"></path>
                            <path d="M68.2167581,2.87781155 L66.064345,7.95683891 L70.386814,7.95683891 L68.2167581,2.87781155 L68.2167581,2.87781155 Z M74.7961764,12.9993921 L72.4667359,12.9993921 L71.1923786,9.93446809 L65.2571,9.93446809 L63.9671404,12.9993921 L61.7076707,12.9993921 L67.2302054,0.21118541 L69.2750819,0.21118541 L74.7961764,12.9993921 L74.7961764,12.9993921 Z"></path>
                            <path d="M80.9419676,5.6350152 C83.5964184,6.28753799 84.976392,7.24948328 84.976392,9.37130699 C84.976392,11.7659574 83.1291861,13.1799392 80.4932182,13.1799392 C78.5742412,13.1799392 76.7626808,12.5096657 75.2565677,11.1505167 L76.5837331,9.55246201 C77.7859591,10.6055927 78.986625,11.2040122 80.5454262,11.2040122 C81.9096774,11.2040122 82.7716508,10.5692401 82.7716508,9.58954407 C82.7716508,8.66504559 82.269133,8.17495441 79.9386123,7.63027356 C77.2667588,6.97762918 75.7589654,6.17981763 75.7589654,3.82151976 C75.7589654,1.60911854 77.5509628,0.120486322 80.0454289,0.120486322 C81.8743919,0.120486322 83.3266167,0.682431611 84.5990536,1.71744681 L83.4159105,3.40389058 C82.2867758,2.5518541 81.1571609,2.0981155 80.0089432,2.0981155 C78.7182634,2.0981155 77.965627,2.76899696 77.965627,3.62151976 C77.9655069,4.61993921 78.5373954,5.05422492 80.9419676,5.6350152"></path>
                            <polygon points="96.0819509 2.2975076 88.9815319 2.2975076 88.9815319 5.59902736 95.2745859 5.59902736 95.2745859 7.59379939 88.9815319 7.59379939 88.9815319 11.0047416 96.173165 11.0047416 96.173165 12.9993921 86.7767907 12.9993921 86.7767907 0.302857143 96.0819509 0.302857143"></polygon>
                        </g>
                    </g>
                </g>
            </g>
        </g>
    </g>
</svg>