<?xml version="1.0" encoding="utf-8"?>
<!-- Generator: Adobe Illustrator 20.0.0, SVG Export Plug-In . SVG Version: 6.00 Build 0)  -->
<svg version="1.1" id="Layer_1" xmlns="http://www.w3.org/2000/svg" xmlns:xlink="http://www.w3.org/1999/xlink" x="0px" y="0px"
	 viewBox="0 0 83 57" style="enable-background:new 0 0 83 57;" xml:space="preserve">
<g>
	<path d="M50.7,30.3l-3.1-5c-0.8-1.3-1.7-2.7-2.5-4.1c-2.9-4.8-6.6-7.2-10.5-6.9c-2.2,0.2-6.3,1.5-9,8.2c-1.1,2.6-2,5.2-2.8,7.8
		c-1.9,5.6-3.7,10.8-6.6,14.5c-3,3.8-7,5.6-12.7,5.6h-3v5.9h2.9c16.7,0,20.9-12.2,24.9-24c0.9-2.5,1.7-5,2.7-7.5
		c1.1-2.7,2.6-4.4,4-4.5c1.5-0.1,3.4,1.5,5,4.1c1,1.7,2,3.2,2.9,4.7L46,34c1.7,2.8,3.1,5.2,3.8,7.1c2,4.6,0.7,7-0.6,8.1
		c-2,1.7-5.5,1.9-7.7,0.4c-2.5-1.6-2.4-4.5-1.8-6.7c0.4-1.6,1.7-3.9,3.8-6.4l-3.2-5.2c-3.2,3.3-5.4,6.8-6.2,10
		c-1.5,5.6,0.1,10.5,4.3,13.1c2,1.3,4.3,1.9,6.7,1.9c2.9,0,5.8-0.9,8-2.8c1.9-1.6,5.9-6.2,2.2-14.9C54.3,36.4,52.7,33.6,50.7,30.3"
		/>
	<path d="M79.5,21.5h3v-6h-3c-2.6,0-5.3,0.2-7.9,0.6V0.5h-6v16.8c-5.4,1.3-10.4,3.4-15,6.1h-0.1l3,5.2h0.1c3.7-2.2,7.8-3.9,12-5.1
		v18c0,7.4,3.7,12.8,9.9,14.4l2.9,0.7h0.1l1.5-5.9L77.1,50c-4.4-1.1-5.3-5.2-5.3-8.5V22.1C74.2,21.7,76.9,21.5,79.5,21.5"/>
</g>
</svg>
